#N canvas 324 148 1108 859 10;
#X declare -path library;
#X obj 33 148 openfiles;
#X obj 33 103 bng 15 250 50 0 empty empty empty 17 7 0 10 -262144 -1
-1;
#X obj 84 123 bng 15 250 50 0 empty empty empty 17 7 0 10 -262144 -1
-1;
#X obj 95 239 bng 15 250 50 0 empty empty empty 17 7 0 10 -262144 -1
-1;
#X obj 120 239 bng 15 250 50 0 empty empty empty 17 7 0 10 -262144
-1 -1;
#X floatatom 76 475 5 0 0 0 - - -, f 5;
#X obj 145 413 bng 15 250 50 0 empty empty empty 17 7 0 10 -262144
-1 -1;
#X obj 375 320 spigot;
#X obj 408 296 tgl 15 0 empty empty empty 17 7 0 10 -262144 -1 -1 0
1;
#X obj 352 269 bng 15 250 50 0 empty empty empty 17 7 0 10 -262144
-1 -1;
#X msg 476 327 pitchClass;
#X msg 476 297 name;
#X msg 476 357 nameWithOctave;
#X msg 476 387 midi;
#X msg 476 441 pitch;
#X msg 476 414 count;
#X obj 917 435 spigot;
#X obj 950 409 tgl 15 0 empty empty empty 17 7 0 10 -262144 -1 -1 1
1;
#X obj 856 436 bng 15 250 50 0 empty empty empty 17 7 0 10 -262144
-1 -1;
#X msg 476 269 frequency;
#X obj 352 458 CountPitches;
#X obj 856 462 CountMelodicIntervals;
#X obj 375 269 r mto_stream;
#X obj 917 382 r mto_stream;
#X obj 120 475 s mto_stream;
#X floatatom 145 309 5 0 0 0 - - -, f 5;
#X obj 33 36 declare -path library;
#X obj 586 269 bng 15 250 50 0 empty empty empty 17 7 0 10 -262144
-1 -1;
#X obj 611 322 spigot;
#X obj 644 296 tgl 15 0 empty empty empty 17 7 0 10 -262144 -1 -1 0
1;
#X obj 611 269 r mto_stream;
#X msg 693 350 pitchClass;
#X msg 693 296 name;
#X msg 693 323 nameWithOctave;
#X msg 693 377 midi;
#X msg 693 269 fullName;
#X msg 693 404 frequency;
#X obj 586 459 Ambitus, f 13;
#X obj 33 435 NoteRestIndexer;
#X obj 145 239 DataframeStartEnd;
#X obj 33 781 HintIndexer;
#X floatatom 95 569 5 0 0 0 - - -, f 5;
#X obj 137 569 DataframeStartEnd;
#X obj 137 639 IndexerPak;
#X obj 137 719 HintSettings;
#X obj 13 746 bng 15 250 50 0 empty empty empty 17 7 0 10 -262144 -1
-1;
#X obj 33 175 s scores;
#X obj 33 569 r scores;
#X obj 33 623 spigot;
#X obj 66 596 tgl 15 0 empty empty empty 17 7 0 10 -262144 -1 -1 1
1;
#X obj 33 292 spigot;
#X obj 66 266 tgl 15 0 empty empty empty 17 7 0 10 -262144 -1 -1 0
1;
#X obj 33 239 r scores;
#X obj 33 808 s hint-dataframes;
#X obj 33 502 s nri-dataframes;
#X obj 145 333 IndexerPak;
#X obj 355 623 bng 15 250 50 0 empty empty empty 17 7 0 10 -262144
-1 -1;
#X msg 464 656 2;
#X msg 493 656 3;
#X msg 522 656 4;
#X msg 551 656 5;
#X msg 580 656 6;
#X floatatom 464 699 5 0 0 0 - - -, f 5;
#X obj 401 686 spigot;
#X obj 434 659 tgl 15 0 empty empty empty 17 7 0 10 -262144 -1 -1 0
1;
#X text 351 594 Horizontal NGrams;
#X obj 355 733 HorizontalNgrams;
#X obj 401 624 r hint-dataframes;
#X text 50 101 <= Load symbolic music scores (any format music21 can
interpret)., f 65;
#X text 31 79 1) We have to load a score first.;
#X text 101 122 <= Recall a loaded score.;
#X text 31 216 2) Now we have to index the file.;
#X text 350 217 3) Music21 functions are enabled by indexing a score.
;
#X text 166 412 <= Send only music21 stream;
#X text 350 241 3a) Count Pitches in a score.;
#X text 583 241 3b) Find the range of a part in a score.;
#X text 843 241 3b) Find melodic intervals in a score.;
#X text 31 545 4) We can find all melodic intervals in a score and
index them., f 66;
#X text 351 571 4a) With melodic intervals in a line we can find melodic
N-Grams., f 66;
#X text 611 656 <= Specify sample rate of overlapping windows.;
#X connect 0 0 46 0;
#X connect 1 0 0 0;
#X connect 2 0 0 1;
#X connect 3 0 38 1;
#X connect 4 0 38 2;
#X connect 6 0 38 6;
#X connect 7 0 20 1;
#X connect 8 0 7 1;
#X connect 9 0 20 0;
#X connect 10 0 20 2;
#X connect 11 0 20 2;
#X connect 12 0 20 2;
#X connect 13 0 20 2;
#X connect 14 0 20 3;
#X connect 15 0 20 3;
#X connect 16 0 21 1;
#X connect 17 0 16 1;
#X connect 18 0 21 0;
#X connect 19 0 20 2;
#X connect 22 0 7 0;
#X connect 23 0 16 0;
#X connect 25 0 38 4;
#X connect 25 0 55 0;
#X connect 27 0 37 0;
#X connect 28 0 37 1;
#X connect 29 0 28 1;
#X connect 30 0 28 0;
#X connect 31 0 37 2;
#X connect 32 0 37 2;
#X connect 33 0 37 2;
#X connect 34 0 37 2;
#X connect 35 0 37 2;
#X connect 36 0 37 2;
#X connect 38 0 54 0;
#X connect 38 1 5 0;
#X connect 38 2 24 0;
#X connect 39 0 38 3;
#X connect 40 0 53 0;
#X connect 41 0 43 0;
#X connect 41 0 40 1;
#X connect 42 0 40 2;
#X connect 43 0 40 3;
#X connect 44 0 40 4;
#X connect 45 0 40 0;
#X connect 47 0 48 0;
#X connect 48 0 40 0;
#X connect 49 0 48 1;
#X connect 50 0 38 0;
#X connect 51 0 50 1;
#X connect 52 0 50 0;
#X connect 55 0 38 5;
#X connect 56 0 66 0;
#X connect 57 0 62 0;
#X connect 58 0 62 0;
#X connect 59 0 62 0;
#X connect 60 0 62 0;
#X connect 61 0 62 0;
#X connect 62 0 66 2;
#X connect 63 0 66 1;
#X connect 64 0 63 1;
#X connect 67 0 63 0;
