#N canvas 714 108 591 318 12;
#X declare -path lib;
#X obj 30 266 VIS-for-Pd Help;
#X obj 30 236 declare -path lib;
#X obj 30 156 vis-index-score;
#X obj 30 71 bng 25 250 50 0 empty empty empty 17 7 0 10 -262144 -1
-1;
#X obj 30 126 openpanel;
#X text 64 73 <= Click to open a symbolic music score from you file
system., f 62;
#X obj 30 186 print;
#X text 27 31 ----- Analysis --------------------------------------------------
, f 67;
#X connect 2 0 6 0;
#X connect 3 0 4 0;
#X connect 4 0 2 0;
