#N canvas 852 234 756 602 12;
#X declare -path lib;
#X obj 30 30 VIS-for-Pd Help;
#X obj 30 70 declare -path lib;
#X msg 30 110 reload;
#X msg 70 190 set ps_name_to_midi;
#X msg 240 190 set midi_to_pc_name;
#X msg 410 190 set midi_to_ps_name;
#X msg 70 230 D#5;
#X obj 30 436 print;
#X msg 240 230 1;
#X msg 282 230 61;
#X floatatom 325 230 5 0 0 0 - - -, f 5;
#X msg 113 230 B-3;
#X msg 156 230 E4;
#X obj 30 376 music21-utilities;
#X msg 50 150 help;
#X connect 2 0 13 0;
#X connect 3 0 13 0;
#X connect 4 0 13 0;
#X connect 5 0 13 0;
#X connect 6 0 13 1;
#X connect 8 0 13 1;
#X connect 9 0 13 1;
#X connect 10 0 13 1;
#X connect 11 0 13 1;
#X connect 12 0 13 1;
#X connect 13 0 7 0;
#X connect 14 0 13 0;
