#N canvas 765 242 728 465 12;
#X declare -path lib;
#X obj 30 406 VIS-for-Pd Help;
#X obj 30 376 declare -path lib;
#X obj 30 71 bng 25 250 50 0 empty empty empty 17 7 0 10 -262144 -1
-1;
#X text 73 72 <= Click to open a symbolic music score from you file
system., f 62;
#X obj 243 406 vis-vertical-intervals;
#X obj 446 406 vis-horizontal-intervals;
#X msg 243 162 beginning;
#X msg 243 192 end;
#X obj 446 352 spigot;
#X obj 491 324 tgl 15 0 empty empty empty 17 7 0 10 -262144 -1 -1 0
1;
#X obj 243 362 spigot;
#X obj 288 334 tgl 15 0 empty empty empty 17 7 0 10 -262144 -1 -1 0
1;
#X obj 416 374 bng 15 250 50 0 empty empty empty 17 7 0 10 -262144
-1 -1;
#X obj 635 376 bng 15 250 50 0 empty empty empty 17 7 0 10 -262144
-1 -1;
#X obj 30 223 VIS-Index-Score 5 beginning;
#X floatatom 172 132 5 0 0 0 - - -, f 5;
#X text 232 130 <= Determine how many events to view in score.;
#X obj 101 97 bng 25 250 50 0 empty empty empty 17 7 0 10 -262144 -1
-1;
#X text 144 99 <= Peak at score events with default values.;
#X text 337 161 <= View events from "beginning" of score.;
#X text 289 191 <= View events from the "end" of the score.;
#X text 27 31 ----- Analysis -------------------------------------------------------------------
, f 83;
#X obj 30 253 print DataFrame;
#X connect 2 0 14 0;
#X connect 6 0 14 3;
#X connect 7 0 14 3;
#X connect 8 0 5 0;
#X connect 9 0 8 1;
#X connect 10 0 4 0;
#X connect 11 0 10 1;
#X connect 12 0 4 1;
#X connect 13 0 5 1;
#X connect 14 0 22 0;
#X connect 14 1 8 0;
#X connect 14 1 10 0;
#X connect 15 0 14 2;
#X connect 17 0 14 1;
