#N canvas 279 49 834 598 12;
#X declare -path lib;
#X obj 30 536 VIS-for-Pd Help;
#X obj 30 506 declare -path lib;
#X obj 30 71 bng 25 250 50 0 empty empty empty 17 7 0 10 -262144 -1
-1;
#X obj 243 536 vis-vertical-intervals;
#X obj 446 536 vis-horizontal-intervals;
#X msg 189 212 beginning;
#X msg 203 242 end;
#X obj 446 482 spigot;
#X obj 491 454 tgl 15 0 empty empty empty 17 7 0 10 -262144 -1 -1 0
1;
#X obj 243 492 spigot;
#X obj 288 464 tgl 15 0 empty empty empty 17 7 0 10 -262144 -1 -1 0
1;
#X obj 416 504 bng 15 250 50 0 empty empty empty 17 7 0 10 -262144
-1 -1;
#X obj 635 506 bng 15 250 50 0 empty empty empty 17 7 0 10 -262144
-1 -1;
#X obj 30 403 VIS-Index-Score 5 beginning;
#X floatatom 136 132 5 0 0 0 - - -, f 5;
#X text 196 130 <= Determine how many events to view in score.;
#X obj 83 97 bng 25 250 50 0 empty empty empty 17 7 0 10 -262144 -1
-1;
#X obj 30 433 print DataFrame;
#X text 221 146 The number can be click-and-dragged \, or click on
the number field \, enter the number on your computer keyboard and
hit enter.;
#X text 287 211 <= Click to view events from "beginning" of score.
;
#X text 287 241 <= Click to view events from the "end" of the score.
;
#X text 126 99 <= Click to peak at score events with default values.
;
#X text 27 31 ----- VIS-for-Pd -----------------------------------------------------------------------------
, f 95;
#X msg 243 273 0 7;
#X text 286 273 <= Select a slice from the score by selecting starting
and end points.;
#X floatatom 374 356 5 0 0 0 - - -, f 5;
#X obj 313 383 pack 0 0;
#X text 424 355 <= This can also happen dynamically.;
#X floatatom 313 354 5 0 0 0 - - -, f 5;
#X text 63 72 <= Click to open a symbolic music score from you file
system (.xml \, .mei \, .mid \, .krn \, etc.)., f 92;
#X connect 2 0 13 0;
#X connect 5 0 13 3;
#X connect 6 0 13 3;
#X connect 7 0 4 0;
#X connect 8 0 7 1;
#X connect 9 0 3 0;
#X connect 10 0 9 1;
#X connect 11 0 3 1;
#X connect 12 0 4 1;
#X connect 13 0 17 0;
#X connect 13 1 7 0;
#X connect 13 1 9 0;
#X connect 14 0 13 2;
#X connect 16 0 13 1;
#X connect 23 0 13 4;
#X connect 25 0 26 1;
#X connect 26 0 13 4;
#X connect 28 0 26 0;
