#N canvas 461 153 710 415 12;
#X declare -path lib;
#X obj 520 356 VIS-for-Pd Help;
#X obj 520 326 declare -path lib;
#X obj 120 197 vis-index-score;
#X obj 120 91 bng 25 250 50 0 empty empty empty 17 7 0 10 -262144 -1
-1;
#X text 154 93 <= Click to open a symbolic music score from you file
system., f 62;
#X obj 30 326 vis-vertical-intervals;
#X obj 230 326 vis-horizontal-intervals;
#X text 27 31 ----- Analysis --------------------------------------------------------------
, f 78;
#X connect 2 0 5 0;
#X connect 2 0 6 0;
#X connect 3 0 2 0;
