#N canvas 347 299 678 437 12;
#X declare -path lib;
#X obj 30 386 declare -path lib;
#X obj 30 76 NoteRestIndexer;
#X obj 30 36 bng 20 250 50 0 empty empty empty 17 7 0 10 -262144 -1
-1;
#X obj 147 116 print Status;
#X obj 30 156 print DataFrame;
#X connect 1 0 4 0;
#X connect 1 1 3 0;
#X connect 2 0 1 0;
