#N canvas 338 510 870 373 12;
#X declare -path lib;
#X obj 217 210 VIS-for-Pd Help;
#X msg 285 180 reload;
#X msg 30 60 set ps_name_to_midi;
#X msg 30 90 set midi_to_pc_name;
#X msg 30 120 set midi_to_ps_name;
#X msg 200 60 D#5;
#X obj 30 320 print;
#X msg 200 90 1;
#X msg 242 90 61;
#X floatatom 285 90 5 0 0 0 - - -, f 5;
#X msg 243 60 B-3;
#X msg 286 60 E4;
#X msg 285 150 help;
#X msg 30 30 set bang_test;
#X obj 200 30 bng 20 250 50 0 empty empty empty 17 7 0 10 -262144 -1
-1;
#X msg 200 120 1;
#X msg 242 120 61;
#X floatatom 285 120 5 0 0 0 - - -, f 5;
#X obj 200 320 declare -path lib;
#X obj 30 260 music21-test;
#X text 362 29 1 Click set bang_test first \, then hit bang.;
#X text 362 59 2 Click set ps_name_to_midi \, then hit D#5 \, etc.
;
#X text 362 89 3 Click set midi_to_pc_name \, then hit 61 \, etc.;
#X text 362 119 4 Click set midi_to_ps_name \, then hit 61 \, etc.
;
#X text 362 149 5 Click help to see py/pyext features.;
#X text 362 179 6 Click reload if you edited the actual Python script.
;
#X text 362 209 7 Click VIS-for-Pd Help to see available abstractions.
;
#X text 362 319 <= Declare the lib path to access available abstractions.
;
#X connect 1 0 19 0;
#X connect 2 0 19 0;
#X connect 3 0 19 0;
#X connect 4 0 19 0;
#X connect 5 0 19 1;
#X connect 7 0 19 1;
#X connect 8 0 19 1;
#X connect 9 0 19 1;
#X connect 10 0 19 1;
#X connect 11 0 19 1;
#X connect 12 0 19 0;
#X connect 13 0 19 0;
#X connect 14 0 19 0;
#X connect 15 0 19 1;
#X connect 16 0 19 1;
#X connect 17 0 19 1;
#X connect 19 0 6 0;
