#N canvas 112 23 1030 730 12;
#X declare -path ../lib;
#X obj 227 53 declare -path ../lib;
#X obj 227 113 openfiles;
#X obj 227 83 bng 20 250 50 0 empty empty Open_File(s) 30 10 0 12 -262144
-1 -66577;
#X obj 227 143 parse-symbolic-music;
#X text 410 143 <= Converts Symbolic music files via music21 to music21
streams., f 65;
#X text 373 380 <= Indexes music21 streams with the VIS-Framework to
pandas DataFrames., f 72;
#X obj 211 380 note-rest-indexer;
#X obj 185 644 horizontal-interval-indexer;
#X obj 211 437 spigot;
#X obj 256 410 tgl 15 0 empty empty empty 17 7 0 10 -262144 -1 -1 0
1;
#X text 418 644 <= Horizontal Interval Analysis, f 32;
#X obj 296 173 bng 15 250 50 0 empty empty empty 17 7 0 10 -262144
-1 -1;
#X floatatom 344 412 5 0 0 0 - - -, f 5;
#X obj 211 355 bng 15 250 50 0 empty empty empty 17 7 0 10 -262144
-1 -1;
#X text 324 170 <= How many scores have been loaded?;
#X text 435 216 <= Direction of the DataFrame.;
#X floatatom 337 269 5 0 0 0 - - -, f 5;
#X text 389 267 <= Number of Events to be shown.;
#X obj 353 299 note-rest-indexer-pak;
#X text 481 324 <= Scroll through a DataFrame slice.;
#X obj 320 198 dataframe-start-end;
#X obj 482 298 hsl 128 15 0 127 0 0 empty empty empty -2 -8 0 10 -262144
-1 -1 0 1;
#X obj 291 464 dataframe-start-end;
#X floatatom 264 535 5 0 0 0 - - -, f 5;
#X obj 318 534 note-rest-indexer-pak;
#X obj 244 333 bng 15 250 50 0 empty empty empty 17 7 0 10 -262144
-1 -1;
#X text 32 330 Pass Score DataFrames =>;
#X obj 185 589 bng 15 250 50 0 empty empty empty 17 7 0 10 -262144
-1 -1;
#X text 85 586 Re-Index =>;
#X obj 238 536 bng 15 250 50 0 empty empty empty 17 7 0 10 -262144
-1 -1;
#X text 96 533 Pass HINTs* on =>;
#X text 30 683 * Horizonal Interval DataFrame;
#X text 109 352 Re-Index =>;
#N canvas 451 108 663 422 hint_settings 0;
#X msg 67 165 simple;
#X msg 175 174 False;
#X msg 203 144 True;
#X msg 98 138 compound;
#X obj 63 112 select 0 1;
#X obj 64 82 tgl 15 0 empty empty empty 17 7 0 10 -262144 -1 -1 0 1
;
#X obj 173 112 select 0 1;
#X obj 174 82 tgl 15 0 empty empty empty 17 7 0 10 -262144 -1 -1 0
1;
#X obj 180 202 symbol;
#X msg 265 174 False;
#X msg 293 144 True;
#X obj 263 112 select 0 1;
#X obj 264 82 tgl 15 0 empty empty empty 17 7 0 10 -262144 -1 -1 1
1;
#X obj 270 202 symbol;
#X msg 355 174 False;
#X msg 383 144 True;
#X obj 353 112 select 0 1;
#X obj 354 82 tgl 15 0 empty empty empty 17 7 0 10 -262144 -1 -1 0
1;
#X obj 360 202 symbol;
#X msg 445 174 False;
#X msg 473 144 True;
#X obj 443 112 select 0 1;
#X obj 444 82 tgl 15 0 empty empty empty 17 7 0 10 -262144 -1 -1 0
1;
#X obj 450 202 symbol;
#X obj 86 215 symbol;
#X obj 113 311 pyx. pak 5;
#X text 32 50 simple/compound;
#X text 178 51 quality;
#X text 258 52 directed;
#X text 345 49 mp;
#X text 438 51 attach later;
#X obj 536 244 loadbang;
#X obj 534 286 bng 15 250 50 0 empty empty empty 17 7 0 10 -262144
-1 -1;
#X obj 103 364 outlet;
#X connect 0 0 24 0;
#X connect 1 0 8 0;
#X connect 2 0 8 0;
#X connect 3 0 24 0;
#X connect 4 0 0 0;
#X connect 4 1 3 0;
#X connect 5 0 4 0;
#X connect 6 0 1 0;
#X connect 6 1 2 0;
#X connect 7 0 6 0;
#X connect 8 0 25 2;
#X connect 9 0 13 0;
#X connect 10 0 13 0;
#X connect 11 0 9 0;
#X connect 11 1 10 0;
#X connect 12 0 11 0;
#X connect 13 0 25 3;
#X connect 14 0 18 0;
#X connect 15 0 18 0;
#X connect 16 0 14 0;
#X connect 16 1 15 0;
#X connect 17 0 16 0;
#X connect 18 0 25 4;
#X connect 19 0 23 0;
#X connect 20 0 23 0;
#X connect 21 0 19 0;
#X connect 21 1 20 0;
#X connect 22 0 21 0;
#X connect 23 0 25 5;
#X connect 24 0 25 1;
#X connect 25 0 33 0;
#X connect 31 0 32 0;
#X connect 32 0 19 0;
#X connect 32 0 14 0;
#X connect 32 0 1 0;
#X connect 32 0 0 0;
#X connect 32 0 12 0;
#X restore 344 614 pd hint_settings;
#X obj 227 200 spigot;
#X obj 272 173 tgl 15 0 empty empty empty 17 7 0 10 -262144 -1 -1 1
1;
#X obj 33 232 pitch-count-filter;
#X obj 33 202 spigot;
#X obj 78 175 tgl 15 0 empty empty empty 17 7 0 10 -262144 -1 -1 0
1;
#X obj 384 113 bng 15 250 50 0 empty empty empty 17 7 0 10 -262144
-1 -1;
#X text 73 83 Opens 1+ files =>;
#X text 401 110 <= Re-send music21 stream;
#X connect 1 0 3 0;
#X connect 2 0 1 0;
#X connect 3 0 34 0;
#X connect 3 0 37 0;
#X connect 6 0 8 0;
#X connect 6 1 12 0;
#X connect 8 0 7 1;
#X connect 9 0 8 1;
#X connect 11 0 6 3;
#X connect 13 0 6 0;
#X connect 16 0 6 5;
#X connect 16 0 18 0;
#X connect 18 0 6 6;
#X connect 20 0 6 4;
#X connect 21 0 18 1;
#X connect 22 0 7 4;
#X connect 23 0 7 3;
#X connect 23 0 24 0;
#X connect 24 0 7 5;
#X connect 25 0 6 2;
#X connect 27 0 7 0;
#X connect 29 0 7 2;
#X connect 33 0 7 6;
#X connect 34 0 6 1;
#X connect 35 0 34 1;
#X connect 37 0 36 0;
#X connect 38 0 37 1;
#X connect 39 0 3 1;
