#N canvas 514 119 834 782 12;
#X declare -path ../lib;
#X obj 41 43 declare -path ../lib;
#X obj 41 123 openfiles;
#X obj 41 83 bng 20 250 50 0 empty empty Open_File(s) 30 10 0 12 -262144
-1 -66577;
#X obj 41 163 parse-symbolic-music;
#X text 214 123 <= Opens 1+ files, f 26;
#X text 214 163 <= Converts Symbolic music files via music21 to music21
streams., f 65;
#X text 203 423 <= Indexes music21 streams with the VIS-Framework to
pandas DataFrames., f 72;
#X obj 41 423 note-rest-indexer;
#X obj 142 610 horizontal-interval-indexer;
#X obj 41 643 vertical-interval-indexer;
#X obj 92 510 spigot;
#X obj 137 483 tgl 15 0 empty empty empty 17 7 0 10 -262144 -1 -1 1
1;
#X obj 41 610 spigot;
#X obj 86 583 tgl 15 0 empty empty empty 17 7 0 10 -262144 -1 -1 0
1;
#X obj 126 729 ngram-indexer;
#X text 242 729 <= Ngram analysis, f 20;
#X text 254 643 <= Vertical Interval Analysis, f 32;
#X text 375 610 <= Horizontal Interval Analysis, f 32;
#X obj 126 693 doublespigot;
#X obj 79 216 bng 15 250 50 0 empty empty empty 17 7 0 10 -262144 -1
-1;
#X text 89 193 <= Pass DataFrames.;
#X floatatom 174 455 5 0 0 0 - - -, f 5;
#X obj 60 197 bng 15 250 50 0 empty empty empty 17 7 0 10 -262144 -1
-1;
#X text 107 213 <= How many scores have been loaded?;
#X text 213 259 <= Direction of the DataFrame.;
#X floatatom 117 312 5 0 0 0 - - -, f 5;
#X text 169 310 <= Number of Events to be shown.;
#X obj 136 342 note-rest-indexer-pak;
#X text 254 367 <= Scroll through a DataFrame slice.;
#X obj 98 241 dataframe-start-end;
#X obj 253 341 hsl 128 15 0 127 0 0 empty empty empty -2 -8 0 10 -262144
-1 -1 0 1;
#X obj 184 540 dataframe-start-end;
#X floatatom 184 513 5 0 0 0 - - -, f 5;
#X obj 289 532 note-rest-indexer-pak;
#X obj 292 507 hsl 128 15 0 127 0 0 empty empty empty -2 -8 0 10 -262144
-1 -1 0 1;
#X connect 1 0 3 0;
#X connect 2 0 1 0;
#X connect 3 0 7 0;
#X connect 7 0 10 0;
#X connect 7 0 12 0;
#X connect 7 1 21 0;
#X connect 8 0 18 1;
#X connect 9 0 18 0;
#X connect 10 0 8 0;
#X connect 11 0 10 1;
#X connect 12 0 9 0;
#X connect 13 0 12 1;
#X connect 18 0 14 0;
#X connect 18 1 14 1;
#X connect 19 0 7 2;
#X connect 22 0 7 1;
#X connect 25 0 7 4;
#X connect 25 0 27 0;
#X connect 27 0 7 5;
#X connect 29 0 7 3;
#X connect 30 0 27 1;
#X connect 31 0 8 2;
#X connect 32 0 33 0;
#X connect 32 0 8 1;
#X connect 33 0 8 3;
#X connect 34 0 33 1;
