#N canvas 337 42 905 643 10;
#X declare -path ../lib;
#X obj 237 23 declare -path ../lib;
#X obj 237 83 openfiles;
#X obj 237 53 bng 20 250 50 0 empty empty Open_File(s) 30 10 0 12 -262144
-1 -66577;
#X obj 237 113 parse-symbolic-music;
#X text 372 113 <= Converts Symbolic music files via music21 to music21
streams., f 65;
#X text 438 350 <= Indexes music21 streams with the VIS-Framework to
pandas DataFrames., f 72;
#X obj 325 350 note-rest-indexer;
#X obj 306 561 horizontal-interval-indexer;
#X obj 325 407 spigot;
#X obj 358 380 tgl 15 0 empty empty empty 17 7 0 10 -262144 -1 -1 0
1;
#X obj 406 143 bng 15 250 50 0 empty empty empty 17 7 0 10 -262144
-1 -1;
#X floatatom 424 382 5 0 0 0 - - -, f 5;
#X obj 315 325 bng 15 250 50 0 empty empty empty 17 7 0 10 -262144
-1 -1;
#X text 427 141 <= How many scores have been loaded?;
#X text 535 186 <= Direction of the DataFrame.;
#X floatatom 447 239 5 0 0 0 - - -, f 5;
#X text 489 237 <= Number of Events to be shown.;
#X obj 430 168 dataframe-start-end;
#X obj 576 268 hsl 128 15 0 127 0 0 empty empty empty -2 -8 0 10 -262144
-1 -1 0 1;
#X obj 438 407 dataframe-start-end;
#X floatatom 385 453 5 0 0 0 - - -, f 5;
#X obj 438 477 note-rest-indexer-pak;
#X obj 349 303 bng 15 250 50 0 empty empty empty 17 7 0 10 -262144
-1 -1;
#X text 192 302 Pass Score DataFrames =>;
#X obj 306 506 bng 15 250 50 0 empty reindex empty 17 7 0 10 -262144
-1 -1;
#X text 233 505 Re-Index =>;
#X obj 359 453 bng 15 250 50 0 empty empty empty 17 7 0 10 -262144
-1 -1;
#X text 237 324 Re-Index =>;
#N canvas 361 70 773 652 hint_settings 0;
#X msg 73 362 simple;
#X msg 193 362 False;
#X msg 231 332 True;
#X msg 111 332 compound;
#X obj 73 302 select 0 1;
#X obj 73 272 tgl 15 0 empty empty empty 17 7 0 10 -262144 -1 -1 0
1;
#X obj 193 302 select 0 1;
#X obj 193 272 tgl 15 0 empty empty empty 17 7 0 10 -262144 -1 -1 0
1;
#X obj 193 392 symbol;
#X msg 287 364 False;
#X msg 325 332 True;
#X obj 287 302 select 0 1;
#X obj 287 272 tgl 15 0 empty empty empty 17 7 0 10 -262144 -1 -1 0
1;
#X obj 287 394 symbol;
#X msg 381 364 False;
#X msg 419 332 True;
#X obj 381 302 select 0 1;
#X obj 381 272 tgl 15 0 empty empty empty 17 7 0 10 -262144 -1 -1 0
1;
#X obj 381 395 symbol;
#X msg 475 364 False;
#X msg 513 334 True;
#X obj 475 302 select 0 1;
#X obj 475 272 tgl 15 0 empty empty empty 17 7 0 10 -262144 -1 -1 0
1;
#X obj 475 395 symbol;
#X obj 73 392 symbol;
#X obj 58 501 pyx. pak 5;
#X text 32 240 simple/compound;
#X text 188 239 quality;
#X text 283 240 directed;
#X text 379 241 mp;
#X text 470 241 attach later;
#X obj 124 571 outlet;
#X obj 58 531 t b l;
#X obj 107 108 tgl 15 0 empty empty empty 17 7 0 10 -262144 -1 -1 0
1;
#X obj 107 127 tgl 15 0 empty empty empty 17 7 0 10 -262144 -1 -1 0
1;
#X obj 107 146 tgl 15 0 empty empty empty 17 7 0 10 -262144 -1 -1 0
1;
#X text 129 108 simple/compound;
#X text 129 126 quality;
#X text 129 146 directed;
#X obj 42 573 s reindex;
#X connect 0 0 24 0;
#X connect 1 0 8 0;
#X connect 2 0 8 0;
#X connect 3 0 24 0;
#X connect 4 0 0 0;
#X connect 4 1 3 0;
#X connect 5 0 4 0;
#X connect 6 0 1 0;
#X connect 6 1 2 0;
#X connect 7 0 6 0;
#X connect 8 0 25 2;
#X connect 9 0 13 0;
#X connect 10 0 13 0;
#X connect 11 0 9 0;
#X connect 11 1 10 0;
#X connect 12 0 11 0;
#X connect 13 0 25 3;
#X connect 14 0 18 0;
#X connect 15 0 18 0;
#X connect 16 0 14 0;
#X connect 16 1 15 0;
#X connect 17 0 16 0;
#X connect 18 0 25 4;
#X connect 19 0 23 0;
#X connect 20 0 23 0;
#X connect 21 0 19 0;
#X connect 21 1 20 0;
#X connect 22 0 21 0;
#X connect 23 0 25 5;
#X connect 24 0 25 1;
#X connect 25 0 32 0;
#X connect 32 0 39 0;
#X connect 32 1 31 0;
#X connect 33 0 5 0;
#X connect 34 0 7 0;
#X connect 35 0 12 0;
#X coords 0 -1 1 1 135 70 2 100 100;
#X restore 578 477 pd hint_settings;
#X obj 337 190 spigot;
#X obj 370 163 tgl 15 0 empty empty empty 17 7 0 10 -262144 -1 -1 0
1;
#X obj 29 260 pitch-count-filter;
#X obj 64 200 spigot;
#X obj 141 185 tgl 15 0 empty empty empty 17 7 0 10 -262144 -1 -1 0
1;
#X obj 354 83 bng 15 250 50 0 empty empty empty 17 7 0 10 -262144 -1
-1;
#X text 371 80 <= Re-send music21 stream;
#X obj 29 199 bng 15 250 50 0 empty empty empty 17 7 0 10 -262144 -1
-1;
#X msg 123 84 pitchClass;
#X msg 123 54 name;
#X msg 123 114 nameWithOctave;
#X msg 123 144 midi;
#X text 358 52 <= Opens 1+ files;
#X text 316 582 ^ Horizontal Interval Analysis, f 32;
#X msg 170 207 pitch;
#X msg 170 180 count;
#X text 259 452 Pass HINTs on =>;
#X obj 447 269 note-rest-indexer-pak;
#X obj 170 260 melodic-interval-filter;
#X obj 237 233 spigot;
#X obj 270 207 tgl 15 0 empty empty empty 17 7 0 10 -262144 -1 -1 0
1;
#X obj 170 234 bng 15 250 50 0 empty empty empty 17 7 0 10 -262144
-1 -1;
#X obj 31 537 horizontal-ngrams;
#X obj 31 507 bng 15 250 50 0 empty empty empty 17 7 0 10 -262144 -1
-1;
#X msg 130 479 2;
#X msg 159 479 3;
#X msg 188 479 4;
#X msg 217 479 5;
#X msg 246 479 6;
#X floatatom 130 513 5 0 0 0 - - -, f 5;
#X obj 80 507 spigot;
#X obj 113 480 tgl 15 0 empty empty empty 17 7 0 10 -262144 -1 -1 0
1;
#X text 29 478 NGrams;
#X text 575 294 <= Scroll through a DataFrame slices.;
#X msg 123 26 frequency;
#X connect 1 0 3 0;
#X connect 2 0 1 0;
#X connect 3 0 29 0;
#X connect 3 0 32 0;
#X connect 3 0 48 0;
#X connect 6 0 8 0;
#X connect 6 1 11 0;
#X connect 7 0 59 0;
#X connect 8 0 7 1;
#X connect 9 0 8 1;
#X connect 10 0 6 3;
#X connect 12 0 6 0;
#X connect 15 0 6 5;
#X connect 15 0 46 0;
#X connect 17 0 6 4;
#X connect 18 0 46 1;
#X connect 19 0 7 4;
#X connect 20 0 7 3;
#X connect 20 0 21 0;
#X connect 21 0 7 5;
#X connect 22 0 6 2;
#X connect 24 0 7 0;
#X connect 26 0 7 2;
#X connect 28 0 7 6;
#X connect 29 0 6 1;
#X connect 30 0 29 1;
#X connect 32 0 31 1;
#X connect 33 0 32 1;
#X connect 34 0 3 1;
#X connect 36 0 31 0;
#X connect 37 0 31 2;
#X connect 38 0 31 2;
#X connect 39 0 31 2;
#X connect 40 0 31 2;
#X connect 43 0 31 3;
#X connect 44 0 31 3;
#X connect 46 0 6 6;
#X connect 48 0 47 1;
#X connect 49 0 48 1;
#X connect 50 0 47 0;
#X connect 52 0 51 0;
#X connect 53 0 58 0;
#X connect 54 0 58 0;
#X connect 55 0 58 0;
#X connect 56 0 58 0;
#X connect 57 0 58 0;
#X connect 58 0 51 2;
#X connect 59 0 51 1;
#X connect 60 0 59 1;
#X connect 63 0 31 2;
