#N canvas 354 45 824 549 12;
#X declare -path ../lib;
#X declare -path ../scores/symbolic;
#X obj 41 463 declare -path ../lib;
#X obj 41 493 declare -path ../scores/symbolic;
#X obj 41 83 openfiles;
#X obj 41 43 bng 20 250 50 0 empty empty Open_File(s) 30 10 0 12 -262144
-1 -66577;
#X obj 41 123 parse-symbolic-music;
#X text 214 83 <= Opens 1+ files, f 26;
#X text 214 123 <= Converts Symbolic music files via music21 to music21
streams., f 65;
#X text 214 163 <= Indexes music21 streams with the VIS-Framework to
pandas DataFrames., f 72;
#X obj 41 163 note-rest-indexer;
#X obj 142 260 horizontal-interval-indexer;
#X obj 41 293 vertical-interval-indexer;
#X obj 142 230 spigot;
#X obj 187 203 tgl 15 0 empty empty empty 17 7 0 10 -262144 -1 -1 1
1;
#X obj 41 260 spigot;
#X obj 86 233 tgl 15 0 empty empty empty 17 7 0 10 -262144 -1 -1 1
1;
#X obj 126 379 ngram-indexer;
#X text 242 379 <= Ngram analysis, f 20;
#X text 254 293 <= Vertical Interval Analysis, f 32;
#X text 375 260 <= Horizontal Interval Analysis, f 32;
#X obj 126 343 doublespigot;
#X connect 2 0 4 0;
#X connect 3 0 2 0;
#X connect 4 0 8 0;
#X connect 8 0 11 0;
#X connect 8 0 13 0;
#X connect 9 0 19 1;
#X connect 10 0 19 0;
#X connect 11 0 9 0;
#X connect 12 0 11 1;
#X connect 13 0 10 0;
#X connect 14 0 13 1;
#X connect 19 0 15 0;
#X connect 19 1 15 1;
