#N canvas 615 148 370 316 10;
#X msg 49 61 doc;
#X msg 32 29 doc+;
#X msg 60 94 reload;
#X obj 32 261 outlet;
#X obj 123 29 inlet;
#X obj 167 59 openfiles;
#X obj 167 29 bng 20 250 50 0 empty empty empty 17 7 0 10 -262144 -1
-1;
#X obj 167 119 bng 20 250 50 0 empty empty empty 17 7 0 10 -262144
-1 -1;
#X obj 167 149 list;
#X obj 167 89 t b l;
#X obj 79 169 bng 15 250 50 0 empty empty empty 17 7 0 10 -262144 -1
-1;
#X obj 79 29 inlet;
#X msg 246 57 count;
#X obj 236 114 symbol;
#X symbolatom 236 143 10 0 0 0 - - -, f 10;
#X obj 236 30 inlet;
#X obj 32 218 pyext CountMelodicIntervals Count;
#X msg 256 84 interval;
#X connect 0 0 16 0;
#X connect 1 0 16 0;
#X connect 2 0 16 0;
#X connect 4 0 9 0;
#X connect 5 0 9 0;
#X connect 6 0 5 0;
#X connect 7 0 8 0;
#X connect 8 0 16 1;
#X connect 9 0 7 0;
#X connect 9 1 8 1;
#X connect 10 0 16 1;
#X connect 11 0 10 0;
#X connect 12 0 13 0;
#X connect 13 0 14 0;
#X connect 14 0 16 2;
#X connect 15 0 13 0;
#X connect 16 0 3 0;
#X connect 17 0 13 0;
