#N canvas 407 251 608 475 10;
#X obj 55 346 pyext HintIndexer Get;
#X text 31 24 Horizontal Interval Indexer;
#X msg 28 255 doc;
#X msg 28 282 doc+;
#X msg 28 309 reload;
#X obj 75 122 openfiles;
#X obj 75 92 bng 20 250 50 0 empty empty empty 17 7 0 10 -262144 -1
-1;
#X obj 126 92 bng 20 250 50 0 empty empty empty 17 7 0 10 -262144 -1
-1;
#X obj 75 63 inlet;
#X obj 156 92 bng 15 250 50 0 empty empty empty 17 7 0 10 -262144 -1
-1;
#X floatatom 200 93 5 0 0 0 - - -, f 5;
#X msg 242 106 beginning;
#X msg 242 136 end;
#X obj 200 65 inlet;
#X obj 244 65 inlet;
#X floatatom 425 84 5 0 0 0 - - -, f 5;
#X floatatom 475 144 5 0 0 0 - - -, f 5;
#X text 402 61 Start;
#X text 523 144 End, f 4;
#X obj 475 113 + 1;
#X floatatom 490 85 5 0 0 0 - - -, f 5;
#X text 444 61 Interval:;
#X obj 318 65 inlet;
#X obj 362 65 inlet;
#X obj 55 416 outlet;
#X obj 178 416 outlet;
#X obj 376 172 pyx. IndexerPak 2;
#X connect 0 0 24 0;
#X connect 0 1 25 0;
#X connect 2 0 0 0;
#X connect 3 0 0 0;
#X connect 4 0 0 0;
#X connect 5 0 0 1;
#X connect 6 0 5 0;
#X connect 7 0 5 1;
#X connect 8 0 0 1;
#X connect 9 0 0 1;
#X connect 10 0 20 0;
#X connect 10 0 0 2;
#X connect 11 0 0 3;
#X connect 12 0 0 3;
#X connect 13 0 10 0;
#X connect 14 0 0 3;
#X connect 15 0 19 0;
#X connect 15 0 26 1;
#X connect 16 0 26 2;
#X connect 19 0 16 0;
#X connect 20 0 19 1;
#X connect 22 0 0 4;
#X connect 23 0 0 5;
#X connect 26 0 0 4;
