#N canvas 763 124 431 415 10;
#X obj 111 348 pyext HorizontalNgrams Get;
#X msg 89 161 doc;
#X msg 89 134 doc+;
#X msg 89 188 reload;
#X obj 92 49 inlet;
#X obj 136 79 openfiles;
#X obj 136 49 bng 20 250 50 0 empty empty empty 17 7 0 10 -262144 -1
-1;
#X obj 136 139 bng 20 250 50 0 empty empty empty 17 7 0 10 -262144
-1 -1;
#X obj 136 169 list;
#X obj 136 109 t b l;
#X obj 48 49 inlet;
#X obj 186 170 inlet;
#X msg 226 171 2;
#X msg 258 172 3;
#X msg 291 172 4;
#X msg 326 172 5;
#X msg 357 172 6;
#X connect 1 0 0 0;
#X connect 2 0 0 0;
#X connect 3 0 0 0;
#X connect 4 0 9 0;
#X connect 5 0 9 0;
#X connect 6 0 5 0;
#X connect 7 0 8 0;
#X connect 8 0 0 1;
#X connect 9 0 7 0;
#X connect 9 1 8 1;
#X connect 10 0 7 0;
#X connect 11 0 0 2;
#X connect 12 0 0 2;
#X connect 13 0 0 2;
#X connect 14 0 0 2;
#X connect 15 0 0 2;
#X connect 16 0 0 2;
