#N canvas 268 161 274 323 10;
#X obj 37 138 + 1;
#X obj 101 101 cnv 15 125 68 empty empty empty 20 12 0 14 -233017 -66577
0;
#X floatatom 107 108 5 0 0 0 - - -, f 5;
#X floatatom 107 128 5 0 0 0 - - -, f 5;
#X floatatom 107 148 5 0 0 0 - - -, f 5;
#X text 144 108 Start;
#X text 144 128 End;
#X text 144 148 Interval;
#X obj 40 222 outlet;
#X obj 16 249 unpack 0 0;
#X floatatom 16 288 5 0 0 0 - - -, f 5;
#X floatatom 93 288 5 0 0 0 - - -, f 5;
#X obj 35 26 inlet;
#X obj 107 26 inlet;
#X obj 40 194 pyx. IndexerPak 2;
#X connect 0 0 3 0;
#X connect 2 0 0 0;
#X connect 2 0 14 1;
#X connect 3 0 14 2;
#X connect 4 0 0 1;
#X connect 9 0 10 0;
#X connect 9 1 11 0;
#X connect 12 0 4 0;
#X connect 13 0 2 0;
#X connect 14 0 8 0;
#X connect 14 0 9 0;
#X coords 0 -1 1 1 127 70 2 100 100;
