#N canvas 718 23 980 668 10;
#X msg 71 52 doc;
#X msg 71 79 doc+;
#X msg 71 106 reload;
#X obj 71 353 pyext NoteRestIndexer Index;
#X obj 140 108 openfiles;
#X obj 140 78 bng 20 250 50 0 empty empty empty 17 7 0 10 -262144 -1
-1;
#X obj 191 78 bng 20 250 50 0 empty empty empty 17 7 0 10 -262144 -1
-1;
#X obj 239 79 bng 20 250 50 0 empty empty empty 17 7 0 10 -262144 -1
-1;
#X obj 462 49 inlet;
#X text 515 49 How many scores have been parsed?;
#X text 267 80 Manually pass DataFrame(s) on.;
#X obj 462 79 bng 20 250 50 0 empty empty empty 17 7 0 10 -262144 -1
-1;
#X obj 517 79 inlet;
#X msg 516 106 beginning;
#X msg 516 136 end;
#X obj 588 79 inlet;
#X floatatom 588 109 5 0 0 0 - - -, f 5;
#X floatatom 613 197 5 0 0 0 - - -, f 5;
#X floatatom 663 257 5 0 0 0 - - -, f 5;
#X text 641 79 Show how many events.;
#X text 610 179 Start;
#X text 698 257 End, f 4;
#X text 699 109 Show a slice of events:;
#X obj 663 226 + 1;
#X obj 647 109 inlet;
#X floatatom 678 198 5 0 0 0 - - -, f 5;
#X text 712 197 Interval:;
#X obj 239 49 inlet;
#X obj 71 511 outlet;
#X obj 94 434 print DataFrames;
#X obj 224 454 print Number_of_Scores;
#X obj 150 481 outlet;
#X text 212 481 Number of scores parsed.;
#X obj 224 424 spigot;
#X obj 257 399 tgl 15 0 empty empty empty 17 7 0 10 -262144 -1 -1 0
1;
#X obj 94 404 spigot;
#X obj 127 380 tgl 15 0 empty empty empty 17 7 0 10 -262144 -1 -1 0
1;
#X text 131 512 Paths to DataFrames.;
#X text 279 397 Turn printing on or off for debugging.;
#X obj 129 51 inlet;
#X obj 707 309 inlet;
#X text 753 310 Extract music21 streams;
#X obj 707 338 bng 15 250 50 0 empty empty empty 17 7 0 10 -262144
-1 -1;
#X obj 247 370 outlet;
#X text 295 371 Paths to frozen music21 streams.;
#X obj 468 486 print Frozen_Music21_scores;
#X obj 468 458 spigot;
#X obj 501 433 tgl 15 0 empty empty empty 17 7 0 10 -262144 -1 -1 0
1;
#X obj 564 285 pyx. IndexerPak 2;
#X obj 118 611 OffsetIndexer;
#X obj 152 557 bng 15 250 50 0 empty empty empty 17 7 0 10 -262144
-1 -1;
#X msg 270 558 1;
#X msg 300 558 2;
#X msg 330 558 4;
#X msg 360 558 8;
#X floatatom 270 608 5 0 0 0 - - -, f 5;
#X msg 270 535 0;
#X text 302 535 <= Resets offsets.;
#X connect 0 0 3 0;
#X connect 1 0 3 0;
#X connect 2 0 3 0;
#X connect 3 0 28 0;
#X connect 3 0 35 0;
#X connect 3 0 49 0;
#X connect 3 1 31 0;
#X connect 3 1 33 0;
#X connect 3 2 43 0;
#X connect 3 2 46 0;
#X connect 4 0 3 1;
#X connect 5 0 4 0;
#X connect 6 0 4 1;
#X connect 7 0 3 1;
#X connect 8 0 11 0;
#X connect 11 0 3 2;
#X connect 12 0 3 3;
#X connect 13 0 3 3;
#X connect 14 0 3 3;
#X connect 15 0 16 0;
#X connect 16 0 25 0;
#X connect 16 0 3 2;
#X connect 17 0 23 0;
#X connect 17 0 48 1;
#X connect 18 0 48 2;
#X connect 23 0 18 0;
#X connect 24 0 3 4;
#X connect 25 0 23 1;
#X connect 27 0 7 0;
#X connect 33 0 30 0;
#X connect 34 0 33 1;
#X connect 35 0 29 0;
#X connect 36 0 35 1;
#X connect 39 0 3 1;
#X connect 40 0 42 0;
#X connect 42 0 3 5;
#X connect 46 0 45 0;
#X connect 47 0 46 1;
#X connect 48 0 3 4;
#X connect 50 0 49 1;
#X connect 51 0 55 0;
#X connect 52 0 55 0;
#X connect 53 0 55 0;
#X connect 54 0 55 0;
#X connect 55 0 49 2;
#X connect 56 0 55 0;
