#N canvas 266 40 572 268 10;
#X obj 182 29 inlet;
#X obj 115 187 pyext OffsetIndexer Set;
#X msg 61 92 doc;
#X msg 61 119 doc+;
#X msg 61 146 reload;
#X msg 300 108 1;
#X msg 330 108 2;
#X msg 360 108 4;
#X msg 390 108 8;
#X floatatom 270 158 5 0 0 0 - - -, f 5;
#X obj 270 59 inlet;
#X obj 182 124 bng 20 250 50 0 empty empty empty 17 7 0 10 -262144
-1 -1;
#X obj 182 154 list;
#X obj 182 64 t b l;
#X obj 241 30 inlet;
#X text 282 30 <= Recall previously loaded files.;
#X msg 300 85 0;
#X text 332 85 <= Resets offsets.;
#X obj 115 224 outlet;
#X text 164 224 <= Pass on new DataFrame.;
#X connect 0 0 13 0;
#X connect 1 0 18 0;
#X connect 2 0 1 0;
#X connect 3 0 1 0;
#X connect 4 0 1 0;
#X connect 5 0 9 0;
#X connect 6 0 9 0;
#X connect 7 0 9 0;
#X connect 8 0 9 0;
#X connect 9 0 1 2;
#X connect 10 0 9 0;
#X connect 11 0 12 0;
#X connect 12 0 1 1;
#X connect 13 0 11 0;
#X connect 13 1 12 1;
#X connect 14 0 11 0;
#X connect 16 0 9 0;
