#N canvas 311 103 580 556 10;
#X obj 182 68 inlet;
#X obj 35 273 outlet;
#X msg 55 96 reload;
#X msg 45 69 doc;
#X msg 35 42 doc+;
#X obj 35 126 pyext OpenFiles ReadFiles;
#X obj 226 197 inlet;
#X obj 35 214 bng 20 250 50 0 empty empty empty 17 7 0 10 -262144 -1
-1;
#X obj 35 244 list;
#X obj 35 184 t b l;
#X obj 182 95 bng 20 250 50 0 empty empty empty 17 7 0 10 -262144 -1
-1;
#X text 70 244 Recall previously loaded files.;
#X text 209 97 Load multiple files.;
#X connect 0 0 10 0;
#X connect 2 0 5 0;
#X connect 3 0 5 0;
#X connect 4 0 5 0;
#X connect 5 0 9 0;
#X connect 6 0 7 0;
#X connect 7 0 8 0;
#X connect 8 0 1 0;
#X connect 9 0 7 0;
#X connect 9 1 8 1;
#X connect 10 0 5 1;
