#N canvas 309 92 508 313 12;
#X obj 92 25 inlet;
#X obj 24 268 outlet;
#X obj 24 210 pyext SymbolicMusic Parse;
#X msg 41 60 doc;
#X msg 24 28 doc+;
#X msg 52 93 reload;
#X text 180 25 Load multiple files.;
#X obj 151 55 openfiles;
#X obj 151 25 bng 20 250 50 0 empty empty empty 17 7 0 10 -262144 -1
-1;
#X obj 151 115 bng 20 250 50 0 empty empty empty 17 7 0 10 -262144
-1 -1;
#X obj 151 145 list;
#X obj 151 85 t b l;
#X obj 221 85 inlet;
#X text 281 84 <= resend music21 streams;
#X obj 221 115 bng 20 250 50 0 empty empty empty 17 7 0 10 -262144
-1 -1;
#X connect 0 0 11 0;
#X connect 2 0 1 0;
#X connect 3 0 2 0;
#X connect 4 0 2 0;
#X connect 5 0 2 0;
#X connect 7 0 11 0;
#X connect 8 0 7 0;
#X connect 9 0 10 0;
#X connect 10 0 2 1;
#X connect 11 0 9 0;
#X connect 11 1 10 1;
#X connect 12 0 14 0;
#X connect 14 0 2 1;
