#N canvas 301 23 591 544 10;
#X text 29 30 Vertical Interval Indexer;
#X obj 55 378 pyext VintIndexer Get;
#X msg 28 255 doc;
#X msg 28 282 doc+;
#X msg 28 309 reload;
#X obj 75 122 openfiles;
#X obj 75 92 bng 20 250 50 0 empty empty empty 17 7 0 10 -262144 -1
-1;
#X obj 126 92 bng 20 250 50 0 empty empty empty 17 7 0 10 -262144 -1
-1;
#X obj 75 65 inlet;
#X obj 156 92 bng 15 250 50 0 empty empty empty 17 7 0 10 -262144 -1
-1;
#X obj 55 470 outlet;
#X floatatom 200 93 5 0 0 0 - - -, f 5;
#X obj 200 65 inlet;
#X msg 243 95 beginning;
#X msg 243 122 end;
#X floatatom 437 89 5 0 0 0 - - -, f 5;
#X floatatom 487 149 5 0 0 0 - - -, f 5;
#X text 414 66 Start;
#X text 535 149 End, f 4;
#X obj 487 118 + 1;
#X floatatom 502 90 5 0 0 0 - - -, f 5;
#X text 456 66 Interval:;
#X obj 388 177 pyx. IndexerPak 2;
#X obj 244 65 inlet;
#X obj 328 65 inlet;
#X obj 372 65 inlet;
#X obj 178 467 outlet;
#X connect 1 0 10 0;
#X connect 1 1 26 0;
#X connect 2 0 1 0;
#X connect 3 0 1 0;
#X connect 4 0 1 0;
#X connect 5 0 1 1;
#X connect 6 0 5 0;
#X connect 7 0 5 1;
#X connect 8 0 1 1;
#X connect 9 0 1 1;
#X connect 11 0 1 2;
#X connect 11 0 20 0;
#X connect 12 0 11 0;
#X connect 13 0 1 3;
#X connect 14 0 1 3;
#X connect 15 0 19 0;
#X connect 15 0 22 1;
#X connect 16 0 22 2;
#X connect 19 0 16 0;
#X connect 20 0 19 1;
#X connect 22 0 1 4;
#X connect 23 0 1 3;
#X connect 24 0 1 4;
#X connect 25 0 1 5;
