#N canvas 69 153 1100 512 10;
#X declare -path ../lib;
#X obj 43 29 declare -path ../lib;
#X obj 43 103 openfiles;
#X obj 43 73 bng 20 250 50 0 empty empty Open_File(s) 30 10 0 12 -262144
-1 -66577;
#X obj 43 133 parse-symbolic-music;
#X text 183 133 <= Converts Symbolic music files via music21 to music21
streams., f 65;
#X obj 160 103 bng 20 250 50 0 empty empty empty 17 7 0 10 -262144
-1 -1;
#X text 164 72 <= Opens 1+ files;
#X obj 27 435 note-rest-indexer;
#X obj 43 193 spigot;
#X obj 76 163 tgl 20 0 empty empty empty 17 7 0 10 -262144 -1 -1 1
1;
#X obj 27 223 bng 20 250 50 0 empty empty empty 17 7 0 10 -262144 -1
-1;
#X text 61 222 <= Re-index music21 streams.;
#X text 104 163 <= Turn data stream on or off.;
#X text 188 105 <= Re-send music21 stream.;
#X floatatom 109 328 5 0 0 0 - - -, f 5;
#X obj 614 455 horizontal-interval-indexer;
#X obj 640 143 spigot;
#X obj 673 113 tgl 20 0 empty empty empty 17 7 0 10 -262144 -1 -1 0
1;
#X obj 614 145 bng 20 250 50 0 empty empty empty 17 7 0 10 -262144
-1 -1;
#X obj 60 405 bng 20 250 50 0 empty empty empty 17 7 0 10 -262144 -1
-1;
#X obj 667 173 bng 20 250 50 0 empty empty empty 17 7 0 10 -262144
-1 -1;
#X floatatom 652 206 5 0 0 0 - - -, f 5;
#X obj 652 380 hint-settings;
#X obj 27 465 s nri_df;
#X obj 640 83 r nri_df;
#X obj 320 379 r nri_df;
#X obj 320 435 spigot;
#X obj 353 409 tgl 15 0 empty empty empty 17 7 0 10 -262144 -1 -1 1
1;
#X msg 343 229 pitchClass;
#X msg 343 259 name;
#X msg 343 289 nameWithOctave;
#X msg 343 319 midi;
#X msg 343 349 frequency;
#X floatatom 443 229 5 0 0 0 - - -, f 5;
#X obj 297 229 bng 20 250 50 0 empty empty empty 17 7 0 10 -262144
-1 -1;
#X obj 297 465 pitch-display-filter;
#X obj 801 455 vertical-interval-indexer;
#X obj 801 238 spigot;
#X obj 834 212 tgl 15 0 empty empty empty 17 7 0 10 -262144 -1 -1 0
1;
#X obj 801 185 r nri_df;
#X floatatom 862 206 5 0 0 0 - - -, f 5;
#X obj 862 230 dataframe-start-end;
#X obj 862 300 note-rest-indexer-pak;
#X obj 862 380 vint-settings;
#X obj 652 300 note-rest-indexer-pak;
#X obj 126 355 note-rest-indexer-pak;
#X obj 443 256 note-rest-indexer-pak;
#X obj 652 233 dataframe-start-end;
#X obj 93 258 dataframe-start-end;
#X obj 443 336 dataframe-start-end;
#X obj 191 29 audio-player;
#X obj 406 51 note-rest-indexer;
#X connect 1 0 3 0;
#X connect 2 0 1 0;
#X connect 3 0 8 0;
#X connect 5 0 3 1;
#X connect 7 0 23 0;
#X connect 8 0 7 1;
#X connect 9 0 8 1;
#X connect 10 0 7 0;
#X connect 14 0 7 5;
#X connect 14 0 45 0;
#X connect 16 0 15 1;
#X connect 17 0 16 1;
#X connect 18 0 15 0;
#X connect 19 0 7 2;
#X connect 20 0 15 2;
#X connect 21 0 15 3;
#X connect 21 0 44 0;
#X connect 22 0 15 6;
#X connect 24 0 16 0;
#X connect 25 0 26 0;
#X connect 26 0 35 1;
#X connect 27 0 26 1;
#X connect 28 0 35 2;
#X connect 29 0 35 2;
#X connect 30 0 35 2;
#X connect 31 0 35 2;
#X connect 32 0 35 2;
#X connect 33 0 35 3;
#X connect 33 0 46 0;
#X connect 34 0 35 0;
#X connect 37 0 36 0;
#X connect 38 0 37 1;
#X connect 39 0 37 0;
#X connect 40 0 42 0;
#X connect 40 0 36 1;
#X connect 41 0 36 2;
#X connect 42 0 36 3;
#X connect 43 0 36 4;
#X connect 44 0 15 5;
#X connect 45 0 7 6;
#X connect 46 0 35 4;
#X connect 47 0 15 4;
#X connect 48 0 7 4;
#X connect 49 0 35 5;
