#N canvas 516 143 625 359 12;
#X obj 421 63 inlet;
#X msg 108 96 reload;
#X obj 385 63 bng 25 250 50 0 empty empty empty 17 7 0 10 -262144 -1
-1;
#X obj 385 136 openpanel;
#X obj 108 234 pyext vis-index-score NoteRestIndex;
#X msg 385 199 parse_score \$1 1;
#X connect 0 0 3 0;
#X connect 1 0 4 0;
#X connect 2 0 3 0;
#X connect 3 0 5 0;
#X connect 5 0 4 1;
