#N canvas 379 736 618 348 10;
#X obj 37 242 pyext Ambitus Find, f 19;
#X msg 37 87 doc;
#X msg 37 60 doc+;
#X msg 37 114 reload;
#X obj 37 276 outlet;
#X obj 133 59 inlet;
#X obj 177 89 openfiles;
#X obj 177 59 bng 20 250 50 0 empty empty empty 17 7 0 10 -262144 -1
-1;
#X obj 177 149 bng 20 250 50 0 empty empty empty 17 7 0 10 -262144
-1 -1;
#X obj 177 179 list;
#X obj 177 119 t b l;
#X text 125 33 Open pickeled music21 streams.;
#X obj 251 59 inlet;
#X msg 351 141 pitchClass;
#X msg 351 87 name;
#X msg 351 114 nameWithOctave;
#X msg 351 168 midi;
#X obj 251 154 symbol;
#X symbolatom 251 181 10 0 0 0 - - -, f 10;
#X msg 351 60 fullName;
#X msg 351 195 frequency;
#X msg 505 57 True;
#X msg 505 84 False;
#X obj 461 57 inlet;
#X obj 461 181 symbol;
#X symbolatom 461 208 10 0 0 0 - - -, f 10;
#X obj 89 59 inlet;
#X obj 89 87 bng 20 250 50 0 empty empty empty 17 7 0 10 -262144 -1
-1;
#X connect 0 0 4 0;
#X connect 1 0 0 0;
#X connect 2 0 0 0;
#X connect 3 0 0 0;
#X connect 5 0 10 0;
#X connect 6 0 10 0;
#X connect 7 0 6 0;
#X connect 8 0 9 0;
#X connect 9 0 0 1;
#X connect 10 0 8 0;
#X connect 10 1 9 1;
#X connect 12 0 17 0;
#X connect 13 0 17 0;
#X connect 14 0 17 0;
#X connect 15 0 17 0;
#X connect 16 0 17 0;
#X connect 17 0 18 0;
#X connect 18 0 0 2;
#X connect 19 0 17 0;
#X connect 20 0 17 0;
#X connect 21 0 24 0;
#X connect 22 0 24 0;
#X connect 23 0 24 0;
#X connect 24 0 25 0;
#X connect 25 0 0 3;
#X connect 26 0 27 0;
#X connect 27 0 0 1;
