#N canvas 257 36 662 608 10;
#X obj 32 49 bng 15 250 50 0 empty empty empty 17 7 0 10 -262144 -1
-1;
#X obj 54 169 soundfiler;
#X obj 54 102 openpanel;
#N canvas 0 22 450 300 (subpatch) 0;
#X array Clip-1 3.47847e+06 float 0;
#X coords 0 0.5 3.47846e+06 -0.5 300 100 1 0 0;
#X restore 307 64 graph;
#X obj 54 198 expr 44100 / $f1;
#X floatatom 54 229 5 0 0 0 - - -, f 5;
#X obj 25 310 phasor~;
#X obj 26 388 *~;
#X floatatom 307 352 5 0 0 0 - - -, f 5;
#X msg 307 396 \$1 20;
#X obj 307 422 line~;
#X obj 24 471 *~;
#X obj 24 525 hip~ 5;
#X obj 24 562 dac~;
#X obj 211 310 snapshot~;
#X obj 211 283 metro 50;
#X obj 211 258 tgl 15 0 empty empty empty 17 7 0 10 -262144 -1 -1 1
1;
#X obj 307 373 / 1000;
#X obj 310 64 hsl 295 100 0 1 0 0 empty empty empty -2 -8 0 10 -262130
-258113 -1 14848 1;
#X floatatom 211 337 5 0 0 0 - - -, f 5;
#N canvas 0 22 450 300 (subpatch) 0;
#X array Clip-2 3.47847e+06 float 0;
#X coords 0 0.5 3.47846e+06 -0.5 300 100 1 0 0;
#X restore 307 184 graph;
#X obj 310 184 hsl 295 100 0 1 0 0 empty empty empty -2 -8 0 10 -262130
-258113 -1 14848 1;
#X msg 54 140 read -resize \$1 Clip-1 Clip-2;
#X obj 134 427 tabread4~ Clip-2;
#X obj 24 427 tabread4~ Clip-1;
#X msg 343 326 500;
#X floatatom 393 352 5 0 0 0 - - -, f 5;
#X msg 393 396 \$1 20;
#X obj 393 422 line~;
#X obj 393 373 / 1000;
#X msg 393 325 500;
#X obj 134 471 *~;
#X obj 134 525 hip~ 5;
#X msg 307 327 0;
#X msg 432 324 0;
#X obj 14 262 f;
#X obj 9 214 bng 15 250 50 0 empty empty empty 17 7 0 10 -262144 -1
-1;
#X msg 173 65 0;
#X obj 172 37 bng 15 250 50 0 empty empty empty 17 7 0 10 -262144 -1
-1;
#X obj 97 260 t b f;
#X obj 9 173 t b b;
#X text 121 68 pause;
#X text 117 35 unpause;
#X msg 75 292 0;
#X obj 238 36 bng 15 250 50 0 empty empty empty 17 7 0 10 -262144 -1
-1;
#X text 192 36 rewind;
#X text 19 21 choose file;
#X connect 0 0 2 0;
#X connect 1 0 4 0;
#X connect 1 0 7 1;
#X connect 2 0 22 0;
#X connect 4 0 5 0;
#X connect 5 0 35 1;
#X connect 6 0 7 0;
#X connect 6 0 14 0;
#X connect 7 0 24 0;
#X connect 7 0 23 0;
#X connect 8 0 17 0;
#X connect 9 0 10 0;
#X connect 10 0 11 1;
#X connect 11 0 12 0;
#X connect 12 0 13 0;
#X connect 14 0 18 0;
#X connect 14 0 19 0;
#X connect 14 0 21 0;
#X connect 15 0 14 0;
#X connect 16 0 15 0;
#X connect 17 0 9 0;
#X connect 22 0 1 0;
#X connect 23 0 31 0;
#X connect 24 0 11 0;
#X connect 25 0 8 0;
#X connect 26 0 29 0;
#X connect 27 0 28 0;
#X connect 28 0 31 1;
#X connect 29 0 27 0;
#X connect 30 0 26 0;
#X connect 31 0 32 0;
#X connect 32 0 13 1;
#X connect 33 0 8 0;
#X connect 34 0 26 0;
#X connect 35 0 6 0;
#X connect 36 0 35 0;
#X connect 37 0 35 1;
#X connect 37 0 39 0;
#X connect 38 0 40 0;
#X connect 39 0 36 0;
#X connect 39 1 35 1;
#X connect 40 0 36 0;
#X connect 40 1 5 0;
#X connect 43 0 6 1;
#X connect 44 0 43 0;
