#N canvas 300 23 886 711 10;
#N canvas 0 22 450 300 (subpatch) 0;
#X array array1 62079 float 2;
#X coords 0 1 62079 -1 200 140 1;
#X restore 446 197 graph;
#X obj 47 60 openpanel;
#X obj 47 36 bng 15 250 50 0 empty empty empty 0 -6 0 8 -262144 -1
-1;
#X obj 47 112 soundfiler;
#X msg 47 86 read -resize \$1 array1;
#X obj 47 150 expr 44100 / $f1;
#X floatatom 47 310 5 0 0 0 - - -, f 5;
#X obj 47 405 phasor~;
#X obj 447 345 hsl 200 15 0 1 0 0 empty empty empty -2 -6 0 8 -262144
-1 -1 5895 1;
#X text 445 368 0;
#X text 645 365 1;
#X obj 48 562 tabread4~ array1;
#X obj 82 644 line~;
#X msg 82 618 \$1 20;
#X floatatom 82 591 5 0 0 0 - - -, f 5;
#X obj 47 672 *~;
#X obj 48 704 hip~ 5;
#X obj 48 734 dac~;
#X obj 47 378 *;
#X obj 157 255 hsl 128 15 -2 2 0 0 empty empty empty -2 -6 0 8 -262144
-1 -1 9100 1;
#X text 144 272 -2;
#X text 282 273 2;
#X obj 444 163 hsl 200 15 0 1 0 0 empty empty empty -2 -6 0 8 -262144
-1 -1 11800 1;
#X obj 443 129 hsl 200 15 0 1 0 0 empty empty empty -2 -6 0 8 -262144
-1 -1 5300 1;
#X obj 48 506 +~;
#X obj 177 378 -;
#X floatatom 183 326 5 0 0 0 - - -, f 5;
#X obj 315 331 t f b;
#X obj 47 526 *~;
#X obj 77 189 expr 1 / $f1;
#X obj 77 240 *;
#X text 439 103 0;
#X text 638 103 1;
#X text 70 33 first load sound file;
#X text 353 124 left limit;
#X text 657 160 right limit;
#X text 456 392 slider shows playing position;
#X text 243 396 difference of both (;
#X text 240 415 always calculated \, not;
#X text 239 458 input on the left);
#X text 138 590 volume;
#X text 115 701 DC offset filter;
#X obj 84 278 t b f;
#X obj 48 469 *~;
#X text 236 432 only if there is an;
#X text 153 231 playback speed;
#X obj 271 550 snapshot~;
#X obj 271 523 metro 50;
#X obj 271 498 tgl 15 0 empty empty empty 17 7 0 10 -262144 -1 -1 1
1;
#X floatatom 271 577 5 0 0 0 - - -, f 5;
#X msg 228 188 1;
#X connect 1 0 4 0;
#X connect 2 0 1 0;
#X connect 3 0 5 0;
#X connect 3 0 28 1;
#X connect 4 0 3 0;
#X connect 5 0 30 1;
#X connect 6 0 18 0;
#X connect 7 0 43 0;
#X connect 11 0 15 0;
#X connect 12 0 15 1;
#X connect 13 0 12 0;
#X connect 14 0 13 0;
#X connect 15 0 16 0;
#X connect 16 0 17 0;
#X connect 16 0 17 1;
#X connect 18 0 7 0;
#X connect 19 0 42 0;
#X connect 22 0 26 0;
#X connect 23 0 27 0;
#X connect 24 0 28 0;
#X connect 24 0 46 0;
#X connect 25 0 29 0;
#X connect 25 0 43 1;
#X connect 26 0 25 0;
#X connect 27 0 25 1;
#X connect 27 0 24 1;
#X connect 27 1 26 0;
#X connect 28 0 11 0;
#X connect 29 0 30 0;
#X connect 30 0 6 0;
#X connect 42 0 6 0;
#X connect 42 1 18 1;
#X connect 43 0 24 0;
#X connect 46 0 49 0;
#X connect 46 0 8 0;
#X connect 47 0 46 0;
#X connect 48 0 47 0;
#X connect 50 0 19 0;
