#N canvas 280 546 468 223 12;
#X msg 29 36 reload;
#X obj 218 40 bng 15 250 50 0 empty empty empty 17 7 0 10 -262144 -1
-1;
#X obj 29 110 py bang-test bang_filter;
#X obj 218 161 print;
#X msg 256 69 mango;
#X obj 256 37 bng 15 250 50 0 empty empty empty 17 7 0 10 -262144 -1
-1;
#X obj 332 38 bng 15 250 50 0 empty empty empty 17 7 0 10 -262144 -1
-1;
#X obj 332 70 openpanel;
#X obj 29 165 print music21;
#X connect 0 0 2 0;
#X connect 1 0 2 1;
#X connect 2 0 8 0;
#X connect 2 1 3 0;
#X connect 4 0 2 1;
#X connect 5 0 4 0;
#X connect 6 0 7 0;
#X connect 7 0 2 1;
