#N canvas 561 204 450 300 12;
#X obj 31 21 cnv 20 100 60 empty empty empty 20 12 0 14 -233017 -66577
0;
#X msg 79 124 beginning;
#X msg 79 149 end;
#X obj 79 188 outlet;
#X obj 24 124 tgl 20 0 empty empty empty 17 7 0 10 -262144 -1 -1 1
1;
#X obj 24 149 tgl 20 0 empty empty empty 17 7 0 10 -262144 -1 -1 0
1;
#X obj 24 188 t b;
#X connect 1 0 3 0;
#X connect 1 0 6 0;
#X connect 2 0 3 0;
#X connect 2 0 6 0;
#X connect 6 0 4 0;
#X connect 6 0 5 0;
#X coords 0 -1 1 1 110 60 2 20 20;
