#N struct chords float i float b float t float a float s;
#N canvas 292 230 969 435 10;
#N canvas 722 720 450 300 progression 1;
#X scalar chords 0 60 64 67 72 \;;
#X scalar chords 1 60 65 69 72 \;;
#X scalar chords 2 59 62 67 74 \;;
#X scalar chords 3 60 64 67 72 \;;
#X restore 58 377 pd progression;
#X msg 193 169 \; pd-progression clear;
#X obj 193 236 pointer;
#X obj 58 128 t b b b;
#X obj 58 83 bng 15 250 50 0 empty empty empty 17 7 0 10 -262144 -1
-1;
#N canvas 295 722 389 78 chords 1;
#X obj 30 30 struct chords float i float b float t float a float s
;
#X restore 58 350 pd chords;
#X msg 193 209 traverse pd-progression \, bang;
#X text 154 350 <= Defines a Data Structure;
#X msg 680 82 traverse pd-progression;
#X msg 719 110 next;
#X obj 680 136 pointer;
#X floatatom 709 269 5 0 0 0 - - -, f 5;
#X floatatom 738 289 5 0 0 0 - - -, f 5;
#X floatatom 767 309 5 0 0 0 - - -, f 5;
#X floatatom 797 329 5 0 0 0 - - -, f 5;
#X obj 58 290 append chords i b t a s;
#X obj 680 222 get chords i b t a s;
#X floatatom 680 249 5 0 0 0 - - -, f 5;
#X msg 58 263 0 60 64 67 72 \, 1 60 65 69 72 \, 2 59 62 67 74 \, 3
60 64 67 72;
#X text 56 50 Populating a Matrix (Data Structure);
#X text 154 377 <= Data Container - Holds Data;
#X text 435 177 <= Clear Data Container;
#X text 435 208 <= Traversing the Data Container;
#X text 435 236 <= Referencing Pointers;
#X text 435 266 <= Adding Data;
#X text 679 50 Accessing Data;
#X obj 82 82 loadbang;
#X obj 746 195 print the-end;
#X obj 719 167 t b b;
#X connect 2 0 15 5;
#X connect 3 0 18 0;
#X connect 3 1 6 0;
#X connect 3 2 1 0;
#X connect 4 0 3 0;
#X connect 6 0 2 0;
#X connect 8 0 10 0;
#X connect 9 0 10 0;
#X connect 10 0 16 0;
#X connect 10 1 28 0;
#X connect 16 0 17 0;
#X connect 16 1 11 0;
#X connect 16 2 12 0;
#X connect 16 3 13 0;
#X connect 16 4 14 0;
#X connect 18 0 15 0;
#X connect 26 0 3 0;
#X connect 28 0 8 0;
#X connect 28 1 27 0;
