#N canvas 770 484 450 300 10;
#X obj 101 101 cnv 15 98 58 empty empty empty 20 12 0 14 -233017 -66577
0;
#X obj 109 110 bng 15 250 50 0 empty empty empty 17 7 0 10 -262144
-1 -1;
#X obj 109 135 bng 15 250 50 0 empty empty empty 17 7 0 10 -262144
-1 -1;
#X text 131 135 End;
#X text 131 110 Beginning;
#X msg 124 172 beginning;
#X msg 109 199 end;
#X obj 109 226 outlet;
#X connect 1 0 5 0;
#X connect 2 0 6 0;
#X connect 5 0 7 0;
#X connect 6 0 7 0;
#X coords 0 -1 1 1 100 60 2 100 100;
