#N struct chords float i float b float t float a float s;
#N canvas 524 205 1135 850 12;
#N canvas 81 488 450 300 progression 0;
#X scalar chords 1 57 58 70 74 \;;
#X scalar chords 2 50 63 66 79 \;;
#X scalar chords 3 55 63 71 78 \;;
#X scalar chords 4 55 58 60 73 \;;
#X scalar chords 5 54 58 68 76 \;;
#X scalar chords 6 51 58 72 76 \;;
#X scalar chords 7 48 50 66 70 \;;
#X scalar chords 8 44 50 65 77 \;;
#X scalar chords 9 51 58 69 74 \;;
#X scalar chords 10 43 54 58 78 \;;
#X scalar chords 11 52 54 61 78 \;;
#X scalar chords 12 52 53 69 77 \;;
#X scalar chords 13 43 55 63 72 \;;
#X scalar chords 14 48 51 62 68 \;;
#X scalar chords 15 59 60 64 75 \;;
#X scalar chords 16 59 60 70 73 \;;
#X scalar chords 17 57 63 67 70 \;;
#X scalar chords 18 50 60 63 80 \;;
#X scalar chords 19 58 61 72 75 \;;
#X scalar chords 20 45 48 51 52 \;;
#X scalar chords 21 41 50 56 74 \;;
#X scalar chords 22 55 62 64 68 \;;
#X scalar chords 23 56 58 67 75 \;;
#X scalar chords 24 45 47 53 58 \;;
#X scalar chords 25 45 47 71 78 \;;
#X scalar chords 26 52 55 68 73 \;;
#X scalar chords 27 54 62 70 72 \;;
#X scalar chords 28 50 61 66 78 \;;
#X scalar chords 29 52 56 59 65 \;;
#X scalar chords 30 57 59 71 76 \;;
#X scalar chords 31 59 63 67 79 \;;
#X scalar chords 32 52 60 62 74 \;;
#X scalar chords 33 42 53 66 77 \;;
#X scalar chords 34 41 46 48 62 \;;
#X scalar chords 35 54 63 69 71 \;;
#X scalar chords 36 56 59 63 72 \;;
#X scalar chords 37 50 56 65 71 \;;
#X scalar chords 38 57 62 68 72 \;;
#X scalar chords 39 48 55 60 66 \;;
#X scalar chords 40 53 57 65 75 \;;
#X scalar chords 41 48 61 64 75 \;;
#X scalar chords 42 55 57 61 70 \;;
#X scalar chords 43 48 61 65 69 \;;
#X scalar chords 44 54 55 58 62 \;;
#X scalar chords 45 52 62 71 74 \;;
#X scalar chords 46 43 44 60 80 \;;
#X scalar chords 47 41 46 69 73 \;;
#X scalar chords 48 53 61 67 79 \;;
#X scalar chords 49 45 55 57 66 \;;
#X scalar chords 50 59 63 70 75 \;;
#X scalar chords 51 53 55 71 73 \;;
#X scalar chords 52 58 60 65 77 \;;
#X scalar chords 53 43 52 72 75 \;;
#X scalar chords 54 49 54 58 66 \;;
#X scalar chords 55 41 52 71 80 \;;
#X scalar chords 56 47 57 68 74 \;;
#X scalar chords 57 55 58 61 74 \;;
#X scalar chords 58 47 62 70 79 \;;
#X scalar chords 59 59 63 71 74 \;;
#X scalar chords 60 46 52 65 75 \;;
#X scalar chords 61 42 60 70 77 \;;
#X scalar chords 62 48 60 62 76 \;;
#X scalar chords 63 40 42 63 71 \;;
#X scalar chords 64 59 61 66 80 \;;
#X scalar chords 65 47 53 61 73 \;;
#X scalar chords 66 50 54 71 74 \;;
#X scalar chords 67 52 56 59 79 \;;
#X scalar chords 68 55 58 59 75 \;;
#X scalar chords 69 43 55 63 73 \;;
#X scalar chords 70 48 49 57 69 \;;
#X scalar chords 71 56 63 66 70 \;;
#X scalar chords 72 43 63 70 75 \;;
#X scalar chords 73 47 49 56 76 \;;
#X scalar chords 74 59 60 72 80 \;;
#X scalar chords 75 54 62 65 66 \;;
#X scalar chords 76 52 57 61 65 \;;
#X scalar chords 77 48 61 68 80 \;;
#X scalar chords 78 51 53 68 70 \;;
#X scalar chords 79 59 63 66 75 \;;
#X scalar chords 80 51 52 53 77 \;;
#X scalar chords 81 50 56 58 67 \;;
#X scalar chords 82 50 54 56 72 \;;
#X scalar chords 83 47 57 64 70 \;;
#X scalar chords 84 58 59 66 67 \;;
#X scalar chords 85 45 51 55 62 \;;
#X scalar chords 86 56 60 64 76 \;;
#X scalar chords 87 57 60 61 79 \;;
#X scalar chords 88 46 56 69 73 \;;
#X scalar chords 89 47 58 62 75 \;;
#X scalar chords 90 46 55 57 66 \;;
#X scalar chords 91 59 62 65 80 \;;
#X scalar chords 92 57 63 68 74 \;;
#X scalar chords 93 54 58 69 73 \;;
#X scalar chords 94 56 59 60 63 \;;
#X scalar chords 95 58 60 71 75 \;;
#X scalar chords 96 45 53 71 80 \;;
#X scalar chords 97 59 60 61 63 \;;
#X scalar chords 98 42 63 65 79 \;;
#X scalar chords 99 40 49 66 72 \;;
#X scalar chords 100 47 55 60 61 \;;
#X restore 58 371 pd progression;
#X msg 239 152 \; pd-progression clear;
#X obj 239 228 pointer;
#X obj 58 122 t b b b;
#X obj 58 77 bng 15 250 50 0 empty empty empty 17 7 0 10 -262144 -1
-1;
#N canvas 501 802 512 110 chords 1;
#X obj 37 37 struct chords float i float b float t float a float s
;
#X restore 58 344 pd chords;
#X msg 239 198 traverse pd-progression \, bang;
#X text 194 344 <= Defines a Data Structure;
#X msg 840 83 traverse pd-progression;
#X msg 893 113 next;
#X obj 840 143 pointer;
#X floatatom 892 349 5 0 0 0 - - -, f 5;
#X floatatom 944 349 5 0 0 0 - - -, f 5;
#X floatatom 996 349 5 0 0 0 - - -, f 5;
#X floatatom 1048 349 5 0 0 0 - - -, f 5;
#X obj 58 288 append chords i b t a s;
#X obj 840 309 get chords i b t a s;
#X floatatom 840 349 5 0 0 0 - - -, f 5;
#X msg 58 258 0 60 64 67 72 \, 1 60 65 69 72 \, 2 59 62 67 74 \, 3
60 64 67 72;
#X text 56 50 Populating a Matrix (Data Structure);
#X text 194 371 <= Data Container - Holds Data;
#X text 545 167 <= Clear Data Container;
#X text 545 198 <= Traversing the Data Container;
#X text 545 226 <= Referencing Pointers;
#X text 545 256 <= Adding Data;
#X text 839 50 Accessing Data;
#X obj 962 209 print the-end;
#X obj 893 178 t b b b b;
#X obj 939 239 print re-setting;
#X msg 916 269 0;
#X text 59 728 Writing matrix to text file.;
#X msg 60 763 \; pd-progression write progression.txt;
#X text 365 728 Reading matrix back in.;
#X msg 367 763 \; pd-progression read progression.txt;
#X obj 318 290 bng 15 250 50 0 empty empty empty 17 7 0 10 -262144
-1 -1;
#X obj 318 313 print pointer;
#X obj 59 682 append chords i b t a s, f 24;
#X obj 59 464 bng 15 250 50 0 empty empty empty 17 7 0 10 -262144 -1
-1;
#X obj 273 641 pointer;
#X msg 273 611 traverse pd-progression \, bang;
#X msg 274 563 \; pd-progression clear;
#X obj 59 508 t b b b;
#X text 58 430 Creating a random matrix with 1000 events;
#X obj 59 641 random-voice-ranges 100;
#X connect 2 0 15 5;
#X connect 2 0 34 0;
#X connect 3 0 18 0;
#X connect 3 1 6 0;
#X connect 3 2 1 0;
#X connect 4 0 3 0;
#X connect 6 0 2 0;
#X connect 8 0 10 0;
#X connect 9 0 10 0;
#X connect 10 0 16 0;
#X connect 10 1 27 0;
#X connect 16 0 17 0;
#X connect 16 1 11 0;
#X connect 16 2 12 0;
#X connect 16 3 13 0;
#X connect 16 4 14 0;
#X connect 18 0 15 0;
#X connect 27 0 8 0;
#X connect 27 1 29 0;
#X connect 27 2 28 0;
#X connect 27 3 26 0;
#X connect 29 0 17 0;
#X connect 29 0 11 0;
#X connect 29 0 12 0;
#X connect 29 0 13 0;
#X connect 29 0 14 0;
#X connect 34 0 35 0;
#X connect 37 0 41 0;
#X connect 38 0 36 5;
#X connect 39 0 38 0;
#X connect 41 0 43 0;
#X connect 41 1 39 0;
#X connect 41 2 40 0;
#X connect 43 0 36 0;
#X connect 43 1 36 1;
#X connect 43 2 36 2;
#X connect 43 3 36 3;
#X connect 43 4 36 4;
