#N canvas 722 138 415 424 12;
#X msg 60 172 reload;
#X msg 50 142 doc;
#X obj 263 59 bng 15 250 50 0 empty empty Bypass 17 7 0 10 -262144
-1 -1;
#X obj 263 84 openpanel;
#X obj 263 169 symbol;
#X obj 263 144 bng 15 250 50 0 empty empty Bypass 17 7 0 10 -262144
-1 -1;
#X obj 263 29 inlet;
#X obj 263 114 t b s;
#X obj 50 202 pyext DataFrameHandler Pack;
#X obj 50 312 pyext DataFrameExpand Unpack;
#X msg 60 282 reload;
#X msg 50 252 doc;
#X obj 50 342 print Expanded_Sample;
#X obj 156 232 print Packed_Sample;
#X connect 0 0 8 0;
#X connect 1 0 8 0;
#X connect 2 0 3 0;
#X connect 3 0 7 0;
#X connect 4 0 8 1;
#X connect 5 0 4 0;
#X connect 6 0 2 0;
#X connect 7 0 5 0;
#X connect 7 1 4 1;
#X connect 8 0 9 1;
#X connect 8 2 13 0;
#X connect 9 0 12 0;
#X connect 10 0 9 0;
#X connect 11 0 9 0;
