#N canvas 323 260 450 300 12;
#X obj 77 54 inlet;
#X obj 139 54 inlet;
#X obj 232 107 cnv 15 21 21 empty empty empty 20 12 0 14 -233017 -66577
0;
#X obj 104 104 tgl 15 0 empty empty empty 17 7 0 10 -262144 -1 -1 0
1;
#X obj 77 171 spigot;
#X obj 139 171 spigot;
#X obj 77 201 outlet;
#X obj 139 201 outlet;
#X connect 0 0 4 0;
#X connect 1 0 5 0;
#X connect 3 0 5 1;
#X connect 3 0 4 1;
#X connect 4 0 6 0;
#X connect 5 0 7 0;
#X coords 0 -1 1 1 23 23 2 100 100;
