#N canvas 696 145 450 300 12;
#X floatatom 128 170 5 0 0 0 - - -, f 5;
#X symbolatom 210 171 10 0 0 0 - - -, f 10;
#X obj 209 122 symbol \$2;
#X obj 129 121 float \$1;
#X obj 130 70 bng 15 250 50 0 empty empty empty 17 7 0 10 -262144 -1
-1;
#X connect 2 0 1 0;
#X connect 3 0 0 0;
#X connect 4 0 3 0;
#X connect 4 0 2 0;
