#N canvas 597 320 685 603 10;
#X obj 101 101 cnv 15 125 63 empty empty empty 20 12 0 14 -233017 -66577
0;
#X msg 106 320 simple;
#X msg 226 320 False;
#X msg 264 290 True;
#X msg 144 290 compound;
#X obj 106 260 select 0 1;
#X obj 106 230 tgl 15 0 empty empty empty 17 7 0 10 -262144 -1 -1 0
1;
#X obj 226 260 select 0 1;
#X obj 226 230 tgl 15 0 empty empty empty 17 7 0 10 -262144 -1 -1 0
1;
#X obj 226 350 symbol;
#X msg 320 322 False;
#X msg 358 290 True;
#X obj 320 260 select 0 1;
#X obj 320 230 tgl 15 0 empty empty empty 17 7 0 10 -262144 -1 -1 0
1;
#X obj 320 352 symbol;
#X msg 414 322 False;
#X msg 452 290 True;
#X obj 414 260 select 0 1;
#X obj 414 230 tgl 15 0 empty empty empty 17 7 0 10 -262144 -1 -1 0
1;
#X obj 414 353 symbol;
#X msg 508 322 False;
#X msg 546 292 True;
#X obj 508 260 select 0 1;
#X obj 508 230 tgl 15 0 empty empty empty 17 7 0 10 -262144 -1 -1 0
1;
#X obj 508 353 symbol;
#X obj 106 350 symbol;
#X obj 95 459 pyx. pak 5;
#X text 65 198 simple/compound;
#X text 221 197 quality;
#X text 316 198 directed;
#X text 412 199 mp;
#X text 503 199 attach later;
#X obj 177 514 outlet;
#X obj 95 486 t b l;
#X obj 106 106 tgl 15 0 empty empty empty 17 7 0 10 -262144 -1 -1 0
1;
#X obj 106 125 tgl 15 0 empty empty empty 17 7 0 10 -262144 -1 -1 0
1;
#X obj 106 144 tgl 15 0 empty empty empty 17 7 0 10 -262144 -1 -1 0
1;
#X text 128 106 simple/compound;
#X text 128 124 quality;
#X text 128 144 directed;
#X obj 95 513 s reindex;
#X connect 1 0 25 0;
#X connect 2 0 9 0;
#X connect 3 0 9 0;
#X connect 4 0 25 0;
#X connect 5 0 1 0;
#X connect 5 1 4 0;
#X connect 6 0 5 0;
#X connect 7 0 2 0;
#X connect 7 1 3 0;
#X connect 8 0 7 0;
#X connect 9 0 26 2;
#X connect 10 0 14 0;
#X connect 11 0 14 0;
#X connect 12 0 10 0;
#X connect 12 1 11 0;
#X connect 13 0 12 0;
#X connect 14 0 26 3;
#X connect 15 0 19 0;
#X connect 16 0 19 0;
#X connect 17 0 15 0;
#X connect 17 1 16 0;
#X connect 18 0 17 0;
#X connect 19 0 26 4;
#X connect 20 0 24 0;
#X connect 21 0 24 0;
#X connect 22 0 20 0;
#X connect 22 1 21 0;
#X connect 23 0 22 0;
#X connect 24 0 26 5;
#X connect 25 0 26 1;
#X connect 26 0 33 0;
#X connect 33 0 40 0;
#X connect 33 1 32 0;
#X connect 34 0 6 0;
#X connect 35 0 8 0;
#X connect 36 0 13 0;
#X coords 0 -1 1 1 127 65 2 100 100;
