#N canvas 548 23 614 680 10;
#N canvas 0 22 639 393 gemwin 0;
#X obj 289 246 gemwin;
#X obj 67 89 outlet;
#X obj 67 10 inlet;
#X obj 67 41 route create;
#X msg 67 70 set destroy;
#X msg 182 68 set create;
#X msg 132 112 create \, 1;
#X msg 238 112 destroy;
#N canvas 87 154 247 179 Gem.init 0;
#X obj 59 46 loadbang;
#X msg 118 81 reset;
#X obj 118 113 outlet;
#X obj 59 65 t b b;
#X connect 0 0 3 0;
#X connect 1 0 2 0;
#X connect 3 1 1 0;
#X restore 289 80 pd Gem.init;
#X obj 406 153 inlet;
#X connect 2 0 3 0;
#X connect 3 0 4 0;
#X connect 3 0 6 0;
#X connect 3 1 5 0;
#X connect 3 1 7 0;
#X connect 4 0 1 0;
#X connect 5 0 1 0;
#X connect 6 0 0 0;
#X connect 7 0 0 0;
#X connect 8 0 0 0;
#X connect 9 0 0 0;
#X restore 25 123 pd gemwin;
#X msg 25 29 destroy;
#X obj 24 208 gemhead;
#X msg 76 59 title Histogram;
#X msg 86 86 dimen 640 200;
#X obj 24 175 tgl 15 0 bar-on empty empty 17 7 0 10 -262144 -1 -1 1
1;
#X obj 241 71 tgl 15 0 empty empty empty 17 7 0 10 -262144 -1 -1 1
1;
#X obj 241 124 gemhead;
#X obj 241 209 color;
#X obj 241 158 t a a;
#X msg 268 183 1 1 1;
#X obj 241 239 rectangle 12.75 3.95;
#X obj 240 34 namecanvas histogram;
#X obj 24 289 histogram_bar;
#X obj 24 262 scale 2;
#X obj 24 316 histogram_bar;
#X obj 24 235 translateXYZ -11.25 -1 0;
#X obj 24 343 histogram_bar;
#X obj 24 370 histogram_bar;
#X obj 24 397 histogram_bar;
#X obj 24 424 histogram_bar;
#X obj 24 451 histogram_bar;
#X obj 24 478 histogram_bar;
#X obj 24 505 histogram_bar;
#X obj 24 532 histogram_bar;
#X obj 24 559 histogram_bar;
#X obj 24 586 histogram_bar;
#X obj 114 289 histogram_bar;
#X obj 114 316 histogram_bar;
#X obj 114 343 histogram_bar;
#X obj 114 370 histogram_bar;
#X obj 114 397 histogram_bar;
#X obj 114 424 histogram_bar;
#X obj 114 451 histogram_bar;
#X obj 114 478 histogram_bar;
#X obj 114 505 histogram_bar;
#X obj 114 532 histogram_bar;
#X obj 114 559 histogram_bar;
#X obj 114 586 histogram_bar;
#X connect 0 0 1 0;
#X connect 1 0 0 0;
#X connect 2 0 16 0;
#X connect 3 0 0 1;
#X connect 4 0 0 1;
#X connect 5 0 2 0;
#X connect 6 0 7 0;
#X connect 7 0 9 0;
#X connect 8 0 11 0;
#X connect 9 0 8 0;
#X connect 9 1 10 0;
#X connect 10 0 8 1;
#X connect 13 0 15 0;
#X connect 14 0 13 0;
#X connect 15 0 17 0;
#X connect 16 0 14 0;
#X connect 17 0 18 0;
#X connect 18 0 19 0;
#X connect 19 0 20 0;
#X connect 20 0 21 0;
#X connect 21 0 22 0;
#X connect 22 0 23 0;
#X connect 23 0 24 0;
#X connect 24 0 25 0;
#X connect 25 0 26 0;
#X connect 26 0 27 0;
#X connect 27 0 28 0;
#X connect 28 0 29 0;
#X connect 29 0 30 0;
#X connect 30 0 31 0;
#X connect 31 0 32 0;
#X connect 32 0 33 0;
#X connect 33 0 34 0;
#X connect 34 0 35 0;
#X connect 35 0 36 0;
#X connect 36 0 37 0;
#X connect 37 0 38 0;
