#N canvas 227 23 670 612 10;
#N canvas 0 22 454 304 gemwin 0;
#X obj 132 136 gemwin;
#X obj 67 89 outlet;
#X obj 67 10 inlet;
#X obj 67 41 route create;
#X msg 67 70 set destroy;
#X msg 182 68 set create;
#X msg 132 112 create \, 1;
#X msg 238 112 destroy;
#N canvas 87 154 247 179 Gem.init 0;
#X obj 59 46 loadbang;
#X msg 118 81 reset;
#X obj 118 113 outlet;
#X obj 59 65 t b b;
#X connect 0 0 3 0;
#X connect 1 0 2 0;
#X connect 3 1 1 0;
#X restore 289 80 pd Gem.init;
#X connect 2 0 3 0;
#X connect 3 0 4 0;
#X connect 3 0 6 0;
#X connect 3 1 5 0;
#X connect 3 1 7 0;
#X connect 4 0 1 0;
#X connect 5 0 1 0;
#X connect 6 0 0 0;
#X connect 7 0 0 0;
#X connect 8 0 0 0;
#X restore 25 53 pd gemwin;
#X msg 25 29 destroy;
#X obj 28 97 gemhead;
#X obj 28 298 color;
#X obj 28 562 rectangle 2 1;
#X floatatom 65 517 5 0 0 0 - - -, f 5;
#X floatatom 103 517 5 0 0 0 - - -, f 5;
#X floatatom 65 456 5 0 0 0 - - -, f 5;
#X obj 65 475 / 100;
#X floatatom 104 458 5 0 0 0 - - -, f 5;
#X obj 104 477 / 100;
#X msg 55 267 0 1 1;
#X obj 28 409 translateXYZ;
#X floatatom 51 341 5 0 0 0 - - -, f 5;
#X obj 51 360 / 100;
#X floatatom 90 343 5 0 0 0 - - -, f 5;
#X obj 90 362 / 100;
#X obj 148 298 color;
#X obj 148 562 rectangle 2 1;
#X floatatom 185 517 5 0 0 0 - - -, f 5;
#X floatatom 223 517 5 0 0 0 - - -, f 5;
#X floatatom 185 456 5 0 0 0 - - -, f 5;
#X obj 185 475 / 100;
#X floatatom 224 458 5 0 0 0 - - -, f 5;
#X obj 224 477 / 100;
#X msg 175 267 0 0 1;
#X obj 148 409 translateXYZ;
#X floatatom 171 341 5 0 0 0 - - -, f 5;
#X obj 171 360 / 100;
#X floatatom 210 343 5 0 0 0 - - -, f 5;
#X obj 210 362 / 100;
#X obj 268 298 color;
#X obj 268 562 rectangle 2 1;
#X floatatom 305 517 5 0 0 0 - - -, f 5;
#X floatatom 343 517 5 0 0 0 - - -, f 5;
#X floatatom 305 456 5 0 0 0 - - -, f 5;
#X obj 305 475 / 100;
#X floatatom 344 458 5 0 0 0 - - -, f 5;
#X obj 344 477 / 100;
#X msg 295 267 0 1 0;
#X obj 268 409 translateXYZ;
#X floatatom 291 341 5 0 0 0 - - -, f 5;
#X obj 291 360 / 100;
#X floatatom 330 343 5 0 0 0 - - -, f 5;
#X obj 330 362 / 100;
#X obj 388 298 color;
#X obj 388 562 rectangle 2 1;
#X floatatom 425 517 5 0 0 0 - - -, f 5;
#X floatatom 463 517 5 0 0 0 - - -, f 5;
#X floatatom 425 456 5 0 0 0 - - -, f 5;
#X obj 425 475 / 100;
#X floatatom 464 458 5 0 0 0 - - -, f 5;
#X obj 464 477 / 100;
#X obj 388 409 translateXYZ;
#X floatatom 411 341 5 0 0 0 - - -, f 5;
#X obj 411 360 / 100;
#X floatatom 450 343 5 0 0 0 - - -, f 5;
#X obj 450 362 / 100;
#X obj 508 298 color;
#X obj 508 562 rectangle 2 1;
#X floatatom 545 517 5 0 0 0 - - -, f 5;
#X floatatom 583 517 5 0 0 0 - - -, f 5;
#X floatatom 545 456 5 0 0 0 - - -, f 5;
#X obj 545 475 / 100;
#X floatatom 584 458 5 0 0 0 - - -, f 5;
#X obj 584 477 / 100;
#X obj 508 409 translateXYZ;
#X floatatom 531 341 5 0 0 0 - - -, f 5;
#X obj 531 360 / 100;
#X floatatom 570 343 5 0 0 0 - - -, f 5;
#X obj 570 362 / 100;
#X msg 415 267 1 0 1;
#X msg 535 267 1 0 0;
#X msg 307 291 1 1 1;
#X msg 187 291 1 1 1;
#X msg 67 291 1 1 1;
#X msg 427 299 1 1 1;
#X msg 550 297 1 1 1;
#X connect 0 0 1 0;
#X connect 1 0 0 0;
#X connect 2 0 3 0;
#X connect 2 0 17 0;
#X connect 2 0 31 0;
#X connect 2 0 45 0;
#X connect 2 0 58 0;
#X connect 3 0 12 0;
#X connect 5 0 4 1;
#X connect 6 0 4 2;
#X connect 7 0 8 0;
#X connect 8 0 5 0;
#X connect 9 0 10 0;
#X connect 10 0 6 0;
#X connect 11 0 3 1;
#X connect 12 0 4 0;
#X connect 13 0 14 0;
#X connect 14 0 12 1;
#X connect 15 0 16 0;
#X connect 16 0 12 2;
#X connect 17 0 26 0;
#X connect 19 0 18 1;
#X connect 20 0 18 2;
#X connect 21 0 22 0;
#X connect 22 0 19 0;
#X connect 23 0 24 0;
#X connect 24 0 20 0;
#X connect 25 0 17 1;
#X connect 26 0 18 0;
#X connect 27 0 28 0;
#X connect 28 0 26 1;
#X connect 29 0 30 0;
#X connect 30 0 26 2;
#X connect 31 0 40 0;
#X connect 33 0 32 1;
#X connect 34 0 32 2;
#X connect 35 0 36 0;
#X connect 36 0 33 0;
#X connect 37 0 38 0;
#X connect 38 0 34 0;
#X connect 39 0 31 1;
#X connect 40 0 32 0;
#X connect 41 0 42 0;
#X connect 42 0 40 1;
#X connect 43 0 44 0;
#X connect 44 0 40 2;
#X connect 45 0 53 0;
#X connect 47 0 46 1;
#X connect 48 0 46 2;
#X connect 49 0 50 0;
#X connect 50 0 47 0;
#X connect 51 0 52 0;
#X connect 52 0 48 0;
#X connect 53 0 46 0;
#X connect 54 0 55 0;
#X connect 55 0 53 1;
#X connect 56 0 57 0;
#X connect 57 0 53 2;
#X connect 58 0 66 0;
#X connect 60 0 59 1;
#X connect 61 0 59 2;
#X connect 62 0 63 0;
#X connect 63 0 60 0;
#X connect 64 0 65 0;
#X connect 65 0 61 0;
#X connect 66 0 59 0;
#X connect 67 0 68 0;
#X connect 68 0 66 1;
#X connect 69 0 70 0;
#X connect 70 0 66 2;
#X connect 71 0 45 1;
#X connect 72 0 58 1;
#X connect 73 0 31 1;
#X connect 74 0 17 1;
#X connect 75 0 3 1;
#X connect 76 0 45 1;
#X connect 77 0 58 1;
