#N canvas 41 35 673 620 10;
#N canvas 0 22 639 393 gemwin 0;
#X obj 289 246 gemwin;
#X obj 67 89 outlet;
#X obj 67 10 inlet;
#X obj 67 41 route create;
#X msg 67 70 set destroy;
#X msg 182 68 set create;
#X msg 132 112 create \, 1;
#X msg 238 112 destroy;
#N canvas 87 154 247 179 Gem.init 0;
#X obj 59 46 loadbang;
#X msg 118 81 reset;
#X obj 118 113 outlet;
#X obj 59 65 t b b;
#X connect 0 0 3 0;
#X connect 1 0 2 0;
#X connect 3 1 1 0;
#X restore 289 80 pd Gem.init;
#X obj 406 153 inlet;
#X connect 2 0 3 0;
#X connect 3 0 4 0;
#X connect 3 0 6 0;
#X connect 3 1 5 0;
#X connect 3 1 7 0;
#X connect 4 0 1 0;
#X connect 5 0 1 0;
#X connect 6 0 0 0;
#X connect 7 0 0 0;
#X connect 8 0 0 0;
#X connect 9 0 0 0;
#X restore 25 63 pd gemwin;
#X msg 25 29 destroy;
#X obj 25 107 gemhead;
#X obj 25 302 color;
#X obj 25 572 rectangle 2 1;
#X floatatom 62 548 5 0 0 0 - - -, f 5;
#X floatatom 100 548 5 0 0 0 - - -, f 5;
#X floatatom 62 497 5 0 0 0 - - -, f 5;
#X obj 62 521 / 100;
#X floatatom 100 497 5 0 0 0 - - -, f 5;
#X obj 100 521 / 100;
#X msg 52 247 0 1 1;
#X obj 25 419 translateXYZ;
#X floatatom 48 351 5 0 0 0 - - -, f 5;
#X obj 48 370 / 100;
#X floatatom 92 351 5 0 0 0 - - -, f 5;
#X obj 92 370 / 100;
#X obj 145 308 color;
#X obj 145 572 rectangle 2 1;
#X floatatom 182 548 5 0 0 0 - - -, f 5;
#X floatatom 220 548 5 0 0 0 - - -, f 5;
#X floatatom 182 497 5 0 0 0 - - -, f 5;
#X obj 182 521 / 100;
#X floatatom 220 497 5 0 0 0 - - -, f 5;
#X obj 220 521 / 100;
#X msg 172 257 0 0 1;
#X obj 145 419 translateXYZ;
#X floatatom 168 351 5 0 0 0 - - -, f 5;
#X obj 168 370 / 100;
#X floatatom 212 351 5 0 0 0 - - -, f 5;
#X obj 212 370 / 100;
#X obj 265 308 color;
#X obj 265 572 rectangle 2 1;
#X floatatom 302 548 5 0 0 0 - - -, f 5;
#X floatatom 340 548 5 0 0 0 - - -, f 5;
#X floatatom 302 497 5 0 0 0 - - -, f 5;
#X obj 302 521 / 100;
#X floatatom 340 497 5 0 0 0 - - -, f 5;
#X obj 340 521 / 100;
#X msg 292 257 0 1 0;
#X obj 265 419 translateXYZ;
#X floatatom 288 351 5 0 0 0 - - -, f 5;
#X obj 288 370 / 100;
#X floatatom 332 351 5 0 0 0 - - -, f 5;
#X obj 332 370 / 100;
#X obj 385 308 color;
#X obj 385 572 rectangle 2 1;
#X floatatom 422 548 5 0 0 0 - - -, f 5;
#X floatatom 460 548 5 0 0 0 - - -, f 5;
#X floatatom 422 497 5 0 0 0 - - -, f 5;
#X obj 422 521 / 100;
#X floatatom 460 497 5 0 0 0 - - -, f 5;
#X obj 460 521 / 100;
#X obj 385 419 translateXYZ;
#X floatatom 408 351 5 0 0 0 - - -, f 5;
#X obj 408 370 / 100;
#X floatatom 452 351 5 0 0 0 - - -, f 5;
#X obj 452 370 / 100;
#X obj 505 308 color;
#X obj 505 572 rectangle 2 1;
#X floatatom 542 548 5 0 0 0 - - -, f 5;
#X floatatom 580 548 5 0 0 0 - - -, f 5;
#X floatatom 542 497 5 0 0 0 - - -, f 5;
#X obj 542 521 / 100;
#X floatatom 580 497 5 0 0 0 - - -, f 5;
#X obj 580 521 / 100;
#X obj 505 419 translateXYZ;
#X floatatom 528 351 5 0 0 0 - - -, f 5;
#X obj 528 370 / 100;
#X floatatom 572 351 5 0 0 0 - - -, f 5;
#X obj 572 370 / 100;
#X msg 412 254 1 0 1;
#X msg 532 254 1 0 0;
#X msg 304 281 1 1 1;
#X msg 184 281 1 1 1;
#X msg 62 274 1 1 1;
#X msg 424 281 1 1 1;
#X msg 547 281 1 1 1;
#X msg 97 29 title Histogram;
#X msg 214 29 dimen 640 200;
#X msg 48 329 -1150;
#X msg 92 328 -70;
#X msg 528 150 85;
#X msg 572 150 -50;
#X msg 62 450 40;
#X msg 100 450 250;
#X msg 220 450 200;
#X msg 340 450 150;
#X msg 460 450 100;
#X msg 580 450 50;
#X connect 0 0 1 0;
#X connect 1 0 0 0;
#X connect 2 0 3 0;
#X connect 2 0 17 0;
#X connect 2 0 31 0;
#X connect 2 0 45 0;
#X connect 2 0 58 0;
#X connect 3 0 12 0;
#X connect 5 0 4 1;
#X connect 6 0 4 2;
#X connect 7 0 8 0;
#X connect 8 0 5 0;
#X connect 9 0 10 0;
#X connect 10 0 6 0;
#X connect 11 0 3 1;
#X connect 12 0 4 0;
#X connect 13 0 14 0;
#X connect 14 0 12 1;
#X connect 15 0 16 0;
#X connect 16 0 12 2;
#X connect 17 0 26 0;
#X connect 19 0 18 1;
#X connect 20 0 18 2;
#X connect 21 0 22 0;
#X connect 22 0 19 0;
#X connect 23 0 24 0;
#X connect 24 0 20 0;
#X connect 25 0 17 1;
#X connect 26 0 18 0;
#X connect 27 0 28 0;
#X connect 28 0 26 1;
#X connect 29 0 30 0;
#X connect 30 0 26 2;
#X connect 31 0 40 0;
#X connect 33 0 32 1;
#X connect 34 0 32 2;
#X connect 35 0 36 0;
#X connect 36 0 33 0;
#X connect 37 0 38 0;
#X connect 38 0 34 0;
#X connect 39 0 31 1;
#X connect 40 0 32 0;
#X connect 41 0 42 0;
#X connect 42 0 40 1;
#X connect 43 0 44 0;
#X connect 44 0 40 2;
#X connect 45 0 53 0;
#X connect 47 0 46 1;
#X connect 48 0 46 2;
#X connect 49 0 50 0;
#X connect 50 0 47 0;
#X connect 51 0 52 0;
#X connect 52 0 48 0;
#X connect 53 0 46 0;
#X connect 54 0 55 0;
#X connect 55 0 53 1;
#X connect 56 0 57 0;
#X connect 57 0 53 2;
#X connect 58 0 66 0;
#X connect 60 0 59 1;
#X connect 61 0 59 2;
#X connect 62 0 63 0;
#X connect 63 0 60 0;
#X connect 64 0 65 0;
#X connect 65 0 61 0;
#X connect 66 0 59 0;
#X connect 67 0 68 0;
#X connect 68 0 66 1;
#X connect 69 0 70 0;
#X connect 70 0 66 2;
#X connect 71 0 45 1;
#X connect 72 0 58 1;
#X connect 73 0 31 1;
#X connect 74 0 17 1;
#X connect 75 0 3 1;
#X connect 76 0 45 1;
#X connect 77 0 58 1;
#X connect 78 0 0 1;
#X connect 79 0 0 1;
#X connect 80 0 13 0;
#X connect 81 0 15 0;
#X connect 82 0 27 0;
#X connect 82 0 41 0;
#X connect 82 0 54 0;
#X connect 82 0 67 0;
#X connect 83 0 29 0;
#X connect 83 0 43 0;
#X connect 83 0 56 0;
#X connect 83 0 69 0;
#X connect 84 0 7 0;
#X connect 84 0 21 0;
#X connect 84 0 35 0;
#X connect 84 0 49 0;
#X connect 84 0 62 0;
#X connect 85 0 9 0;
#X connect 86 0 23 0;
#X connect 87 0 37 0;
#X connect 88 0 51 0;
#X connect 89 0 64 0;
