#N canvas 619 381 255 261 10;
#X obj 30 129 separator;
#X obj 98 129 color;
#X obj 98 156 rectangle 0.2 1;
#X obj 30 183 translate 1 0.5 0 0;
#N canvas 757 170 488 371 color-rand 0;
#X obj 49 157 expr random(0 \, 100);
#X floatatom 49 184 5 0 0 0 - - -, f 5;
#X obj 49 208 / 100;
#X obj 177 157 expr random(0 \, 100);
#X floatatom 177 184 5 0 0 0 - - -, f 5;
#X obj 177 208 / 100;
#X obj 307 157 expr random(0 \, 100);
#X floatatom 307 184 5 0 0 0 - - -, f 5;
#X obj 307 208 / 100;
#X obj 49 263 pack 0 0 0;
#X obj 49 116 t b b b;
#X obj 49 91 bng 15 250 50 0 empty empty empty 17 7 0 10 -262144 -1
-1;
#X obj 49 292 outlet;
#X obj 49 63 r bar-on;
#X connect 0 0 1 0;
#X connect 1 0 2 0;
#X connect 2 0 9 0;
#X connect 3 0 4 0;
#X connect 4 0 5 0;
#X connect 5 0 9 1;
#X connect 6 0 7 0;
#X connect 7 0 8 0;
#X connect 8 0 9 2;
#X connect 9 0 12 0;
#X connect 10 0 0 0;
#X connect 10 1 3 0;
#X connect 10 2 6 0;
#X connect 11 0 10 0;
#X connect 13 0 11 0;
#X restore 125 102 pd color-rand;
#X obj 30 102 t a a;
#X obj 30 75 inlet;
#X obj 30 210 outlet;
#X obj 141 75 inlet;
#X obj 185 75 inlet;
#X obj 30 28 namecanvas histogram_bar;
#X connect 0 0 3 0;
#X connect 1 0 2 0;
#X connect 3 0 7 0;
#X connect 4 0 1 1;
#X connect 5 0 0 0;
#X connect 5 1 1 0;
#X connect 6 0 5 0;
#X connect 8 0 2 1;
#X connect 9 0 2 2;
