#N canvas 113 79 557 493 12;
#X obj 110 257 pyext HorizontalIntervalIndexer Get;
#X msg 98 180 reload;
#X msg 51 178 doc;
#X msg 51 148 doc+;
#X obj 272 60 openfiles;
#X obj 272 30 bng 20 250 50 0 empty empty empty 17 7 0 10 -262144 -1
-1;
#X obj 272 120 bng 20 250 50 0 empty empty empty 17 7 0 10 -262144
-1 -1;
#X obj 272 148 t b b;
#X obj 272 210 list;
#X obj 272 90 t b l;
#X obj 202 31 inlet;
#X obj 110 357 outlet;
#X connect 0 0 11 0;
#X connect 1 0 0 0;
#X connect 2 0 0 0;
#X connect 3 0 0 0;
#X connect 4 0 9 0;
#X connect 5 0 4 0;
#X connect 6 0 7 0;
#X connect 7 0 8 0;
#X connect 8 0 0 1;
#X connect 9 0 6 0;
#X connect 9 1 8 1;
#X connect 10 0 0 1;
