#N canvas 251 54 1280 660 12;
#X msg 170 317 reload;
#X msg 170 377 doc;
#X msg 170 347 doc+;
#X obj 169 197 openfiles;
#X obj 169 167 bng 20 250 50 0 empty empty empty 17 7 0 10 -262144
-1 -1;
#X obj 169 257 bng 20 250 50 0 empty empty empty 17 7 0 10 -262144
-1 -1;
#X obj 169 287 list;
#X obj 169 227 t b l;
#X obj 169 137 inlet;
#X obj 170 494 outlet;
#X obj 232 494 print Hint_DataFrames;
#X obj 232 463 spigot;
#X obj 277 437 tgl 15 0 empty empty empty 17 7 0 10 -262144 -1 -1 0
1;
#X floatatom 262 287 5 0 0 0 - - -, f 5;
#X msg 308 347 beginning;
#X msg 308 377 end;
#X obj 262 188 inlet;
#X obj 308 218 inlet;
#X floatatom 392 130 5 0 0 0 - - -, f 5;
#X floatatom 431 190 5 0 0 0 - - -, f 5;
#X text 390 107 Start;
#X text 479 190 End, f 4;
#X obj 354 218 pyx. pak 2;
#X obj 431 159 + 1;
#X floatatom 452 131 5 0 0 0 - - -, f 5;
#X text 448 107 Interval:;
#X obj 354 248 inlet;
#X obj 125 110 inlet;
#X obj 216 347 bng 20 250 50 0 empty empty empty 17 7 0 10 -262144
-1 -1;
#X obj 216 162 inlet;
#X obj 170 407 pyext HorizontalIntervalIndexer Get;
#X obj 537 149 inlet;
#X connect 0 0 30 0;
#X connect 1 0 30 0;
#X connect 2 0 30 0;
#X connect 3 0 7 0;
#X connect 4 0 3 0;
#X connect 5 0 6 0;
#X connect 6 0 30 1;
#X connect 7 0 5 0;
#X connect 7 1 6 1;
#X connect 8 0 7 0;
#X connect 11 0 10 0;
#X connect 12 0 11 1;
#X connect 13 0 24 0;
#X connect 13 0 30 2;
#X connect 14 0 30 3;
#X connect 15 0 30 3;
#X connect 16 0 13 0;
#X connect 17 0 30 3;
#X connect 18 0 22 1;
#X connect 18 0 23 0;
#X connect 19 0 22 2;
#X connect 22 0 30 4;
#X connect 23 0 19 0;
#X connect 24 0 23 1;
#X connect 26 0 30 4;
#X connect 27 0 5 0;
#X connect 28 0 30 1;
#X connect 29 0 28 0;
#X connect 30 0 9 0;
#X connect 30 0 11 0;
#X connect 31 0 30 5;
