#N canvas 768 222 1017 597 12;
#X obj 170 407 pyext HorizontalIntervalIndexer Get;
#X msg 170 317 reload;
#X msg 170 377 doc;
#X msg 170 347 doc+;
#X obj 169 197 openfiles;
#X obj 169 167 bng 20 250 50 0 empty empty empty 17 7 0 10 -262144
-1 -1;
#X obj 169 257 bng 20 250 50 0 empty empty empty 17 7 0 10 -262144
-1 -1;
#X obj 169 287 list;
#X obj 169 227 t b l;
#X obj 169 137 inlet;
#X obj 170 494 outlet;
#X obj 232 494 print Hint_DataFrames;
#X obj 232 463 spigot;
#X obj 277 437 tgl 15 0 empty empty empty 17 7 0 10 -262144 -1 -1 0
1;
#X floatatom 262 287 5 0 0 0 - - -, f 5;
#X msg 308 347 beginning;
#X msg 308 377 end;
#X obj 262 188 inlet;
#X obj 308 218 inlet;
#X floatatom 409 289 5 0 0 0 - - -, f 5;
#X floatatom 448 349 5 0 0 0 - - -, f 5;
#X text 407 266 Start;
#X text 496 349 End, f 4;
#X obj 371 377 pyx. pak 2;
#X obj 448 318 + 1;
#X floatatom 469 290 5 0 0 0 - - -, f 5;
#X text 465 266 Interval:;
#X obj 354 248 inlet;
#X obj 609 126 inlet;
#X msg 671 191 mod-12;
#X obj 776 127 inlet;
#X text 805 160 Play;
#X obj 776 159 tgl 20 0 empty empty empty 17 7 0 10 -262144 -1 -1 0
1;
#X text 607 95 Display Style:;
#X text 772 95 Auralization:;
#X obj 671 291 s hint-display;
#X obj 776 189 s hint-playback;
#X msg 640 221 interval-names;
#X msg 609 251 ascending-descending;
#X obj 609 161 select 1 2 3;
#X obj 125 107 inlet;
#X obj 226 347 bng 20 250 50 0 empty empty empty 17 7 0 10 -262144
-1 -1;
#X obj 227 158 inlet;
#X connect 0 0 10 0;
#X connect 0 0 12 0;
#X connect 1 0 0 0;
#X connect 2 0 0 0;
#X connect 3 0 0 0;
#X connect 4 0 8 0;
#X connect 5 0 4 0;
#X connect 6 0 7 0;
#X connect 7 0 0 1;
#X connect 8 0 6 0;
#X connect 8 1 7 1;
#X connect 9 0 8 0;
#X connect 12 0 11 0;
#X connect 13 0 12 1;
#X connect 14 0 0 2;
#X connect 14 0 25 0;
#X connect 15 0 0 3;
#X connect 16 0 0 3;
#X connect 17 0 14 0;
#X connect 18 0 0 3;
#X connect 19 0 23 1;
#X connect 19 0 24 0;
#X connect 20 0 23 2;
#X connect 23 0 0 4;
#X connect 24 0 20 0;
#X connect 25 0 24 1;
#X connect 27 0 0 4;
#X connect 28 0 39 0;
#X connect 29 0 35 0;
#X connect 30 0 32 0;
#X connect 32 0 36 0;
#X connect 37 0 35 0;
#X connect 38 0 35 0;
#X connect 39 0 38 0;
#X connect 39 1 37 0;
#X connect 39 2 29 0;
#X connect 40 0 6 0;
#X connect 41 0 0 1;
#X connect 42 0 41 0;
