#N canvas 493 339 748 642 10;
#X obj 110 227 pyext HorizontalIntervalIndexer Get;
#X msg 97 171 reload;
#X msg 74 147 doc;
#X msg 71 118 doc+;
#X obj 186 170 openfiles;
#X obj 191 129 bng 15 250 50 0 empty empty empty 17 7 0 10 -262144
-1 -1;
#X connect 1 0 0 0;
#X connect 2 0 0 0;
#X connect 3 0 0 0;
#X connect 4 0 0 1;
#X connect 5 0 4 0;
