#N canvas 266 141 358 238 10;
#X msg 57 96 reload;
#X msg 47 69 doc;
#X msg 37 42 doc+;
#X obj 37 184 print Status;
#X obj 37 147 pyext MultiFile ReadFiles;
#X obj 184 100 bng 20 250 50 0 empty empty empty 17 7 0 10 -262144
-1 -1;
#X text 212 102 <= Open file(s);
#X connect 0 0 4 0;
#X connect 1 0 4 0;
#X connect 2 0 4 0;
#X connect 4 0 3 0;
#X connect 5 0 4 1;
