#N canvas 518 671 450 300 12;
#X obj 104 130 py music21-utilities;
#X obj 105 202 outlet;
#X obj 260 203 outlet;
#X obj 98 57 inlet;
#X obj 266 54 inlet;
#X connect 0 0 1 0;
#X connect 0 1 2 0;
#X connect 3 0 0 0;
#X connect 4 0 0 1;
