#N canvas 588 59 630 539 12;
#X msg 291 331 D#4;
#X obj 38 472 print;
#X msg 68 261 reload;
#X msg 58 231 help;
#X msg 48 201 doc;
#X msg 38 171 doc+;
#X obj 38 121 print;
#X msg 38 41 bang;
#X msg 301 361 D-4;
#X msg 311 391 D4;
#X msg 78 291 dir;
#X msg 88 321 dir+;
#X obj 38 425 py music21-access get_midi_pitch;
#X obj 38 81 py music21-access g_natural_to_midi;
#X msg 89 41 doc+;
#X msg 140 41 reload;
#X msg 98 351 bang;
#X connect 0 0 12 1;
#X connect 2 0 12 0;
#X connect 3 0 12 0;
#X connect 4 0 12 0;
#X connect 5 0 12 0;
#X connect 7 0 13 0;
#X connect 8 0 12 1;
#X connect 9 0 12 1;
#X connect 10 0 12 0;
#X connect 11 0 12 0;
#X connect 12 0 1 0;
#X connect 13 0 6 0;
#X connect 14 0 13 0;
#X connect 15 0 13 0;
#X connect 16 0 12 0;
