#N canvas 161 585 591 425 12;
#X obj 95 249 pyext NoteRestIndexer Index;
#X msg 95 209 reload;
#X msg 95 149 doc;
#X msg 95 179 doc+;
#X obj 308 183 openfiles;
#X obj 308 123 bng 20 250 50 0 empty empty Open_1_or_more_File(s) 30
10 0 12 -262144 -1 -66577;
#X obj 308 213 parse-symbolic-music;
#X obj 58 119 openpanel;
#X obj 58 59 bng 20 250 50 0 empty empty Open_1_File_only 25 10 0 12
-262144 -1 -1;
#X obj 58 89 t b b;
#X obj 308 153 t b b;
#X obj 308 93 bng 20 250 50 0 empty empty Check_for_DataFrames 30 10
0 12 -262144 -1 -1;
#X obj 90 555 entry 0 0 float float;
#X obj 308 63 inlet;
#X obj 95 289 outlet;
#X connect 0 0 14 0;
#X connect 1 0 0 0;
#X connect 2 0 0 0;
#X connect 3 0 0 0;
#X connect 4 0 6 0;
#X connect 5 0 10 0;
#X connect 6 0 0 1;
#X connect 7 0 0 1;
#X connect 8 0 9 0;
#X connect 9 0 7 0;
#X connect 9 1 1 0;
#X connect 10 0 4 0;
#X connect 10 1 1 0;
#X connect 11 0 0 1;
#X connect 13 0 0 1;
