#N canvas 205 562 570 320 12;
#X obj 65 209 pyext NoteRestIndexer Index;
#X msg 85 179 reload;
#X msg 65 119 doc;
#X msg 75 149 doc+;
#X obj 362 125 openfiles;
#X obj 362 35 bng 20 250 50 0 empty empty Open_File(s) 30 10 0 12 -262144
-1 -66577;
#X obj 362 155 parse-symbolic-music;
#X obj 278 125 openpanel;
#X obj 48 39 bng 20 250 50 0 empty empty empty 17 7 0 10 -262144 -1
-1;
#X obj 48 64 t b b;
#X obj 362 75 t b b;
#X obj 171 249 print Debug;
#X connect 0 1 11 0;
#X connect 1 0 0 0;
#X connect 2 0 0 0;
#X connect 3 0 0 0;
#X connect 4 0 6 0;
#X connect 5 0 10 0;
#X connect 6 0 0 1;
#X connect 7 0 0 1;
#X connect 8 0 9 0;
#X connect 9 0 7 0;
#X connect 9 1 1 0;
#X connect 10 0 4 0;
#X connect 10 1 1 0;
