#N canvas 689 311 1034 647 12;
#X obj 63 411 pyext NoteRestIndexer Index;
#X msg 33 321 doc;
#X msg 33 351 doc+;
#X msg 33 381 reload;
#X obj 63 571 outlet;
#X obj 184 147 bng 20 250 50 0 empty empty empty 17 7 0 10 -262144
-1 -1;
#X text 127 87 Load multiple files.;
#X obj 86 494 print DataFrames;
#X obj 226 494 print Number_of_Scores;
#X obj 169 541 outlet;
#X obj 227 177 inlet;
#X text 280 177 How many scores have been parsed?;
#X text 231 541 Number of scores parsed.;
#X obj 226 464 spigot;
#X obj 271 439 tgl 15 0 empty empty empty 17 7 0 10 -262144 -1 -1 0
1;
#X obj 86 464 spigot;
#X obj 131 440 tgl 15 0 empty empty empty 17 7 0 10 -262144 -1 -1 0
1;
#X text 123 572 Paths to DataFrames.;
#X text 293 437 Turn printing on or off for debugging.;
#X text 212 148 Manually pass DataFrame(s) on.;
#X obj 98 117 openfiles;
#X obj 98 87 bng 20 250 50 0 empty empty empty 17 7 0 10 -262144 -1
-1;
#X obj 98 177 bng 20 250 50 0 empty empty empty 17 7 0 10 -262144 -1
-1;
#X obj 98 207 list;
#X obj 98 147 t b l;
#X obj 44 37 inlet;
#X obj 98 57 inlet;
#X obj 227 207 bng 20 250 50 0 empty empty empty 17 7 0 10 -262144
-1 -1;
#X obj 291 207 inlet;
#X msg 169 314 beginning;
#X msg 169 344 end;
#X obj 362 207 inlet;
#X floatatom 362 237 5 0 0 0 - - -, f 5;
#X floatatom 442 289 5 0 0 0 - - -, f 5;
#X floatatom 481 349 5 0 0 0 - - -, f 5;
#X text 415 207 Show how many events.;
#X text 440 262 Start;
#X text 529 349 End, f 4;
#X text 473 237 Show a slice of events:;
#X obj 404 377 pyx. pak 2;
#X obj 481 318 + 1;
#X obj 421 237 inlet;
#X floatatom 502 290 5 0 0 0 - - -, f 5;
#X text 552 289 Interval:;
#X obj 689 66 inlet;
#X msg 743 161 pitch-names;
#X msg 770 131 mod-12;
#X msg 716 191 pitch-class-name;
#X msg 689 221 midi;
#X obj 856 67 inlet;
#X text 885 100 Play;
#X obj 856 99 tgl 20 0 empty empty empty 17 7 0 10 -262144 -1 -1 0
1;
#X text 687 35 Display Style:;
#X text 852 35 Auralization:;
#X obj 689 101 select 1 2 3 4;
#X obj 240 344 r nri-display;
#X obj 276 377 r nri-playback;
#X obj 770 261 s nri-display;
#X obj 856 129 s nri-playback;
#X obj 184 117 inlet;
#X connect 0 0 4 0;
#X connect 0 0 15 0;
#X connect 0 1 9 0;
#X connect 0 1 13 0;
#X connect 1 0 0 0;
#X connect 2 0 0 0;
#X connect 3 0 0 0;
#X connect 5 0 0 1;
#X connect 10 0 27 0;
#X connect 13 0 8 0;
#X connect 14 0 13 1;
#X connect 15 0 7 0;
#X connect 16 0 15 1;
#X connect 20 0 24 0;
#X connect 21 0 20 0;
#X connect 22 0 23 0;
#X connect 23 0 0 1;
#X connect 24 0 22 0;
#X connect 24 1 23 1;
#X connect 25 0 22 0;
#X connect 26 0 24 0;
#X connect 27 0 0 2;
#X connect 28 0 0 3;
#X connect 29 0 0 3;
#X connect 30 0 0 3;
#X connect 31 0 32 0;
#X connect 32 0 0 2;
#X connect 32 0 42 0;
#X connect 33 0 39 1;
#X connect 33 0 40 0;
#X connect 34 0 39 2;
#X connect 39 0 0 4;
#X connect 40 0 34 0;
#X connect 41 0 0 4;
#X connect 42 0 40 1;
#X connect 44 0 54 0;
#X connect 45 0 57 0;
#X connect 46 0 57 0;
#X connect 47 0 57 0;
#X connect 48 0 57 0;
#X connect 49 0 51 0;
#X connect 51 0 58 0;
#X connect 54 0 48 0;
#X connect 54 1 47 0;
#X connect 54 2 45 0;
#X connect 54 3 46 0;
#X connect 55 0 0 5;
#X connect 56 0 0 6;
#X connect 59 0 5 0;
