#N canvas 894 620 282 221 10;
#X obj 182 54 inlet;
#X obj 35 163 outlet;
#X obj 35 126 pyext MultiFile ReadFiles;
#X msg 55 96 reload;
#X msg 45 69 doc;
#X msg 35 42 doc+;
#X connect 0 0 2 1;
#X connect 2 0 1 0;
#X connect 3 0 2 0;
#X connect 4 0 2 0;
#X connect 5 0 2 0;
