#N canvas 599 88 662 577 12;
#X obj 158 95 inlet;
#X obj 19 308 outlet;
#X obj 19 250 pyext SymbolicMusic Parse;
#X msg 36 150 doc;
#X msg 19 118 doc+;
#X msg 47 183 reload;
#X obj 269 288 bng 15 250 50 0 empty empty empty 17 7 0 10 -262144
-1 -1;
#X text 245 93 Load multiple files.;
#X obj 216 123 openfiles;
#X obj 216 93 bng 20 250 50 0 empty empty empty 17 7 0 10 -262144 -1
-1;
#X obj 216 183 bng 20 250 50 0 empty empty empty 17 7 0 10 -262144
-1 -1;
#X obj 216 213 list;
#X obj 216 153 t b l;
#X connect 0 0 12 0;
#X connect 2 0 1 0;
#X connect 3 0 2 0;
#X connect 4 0 2 0;
#X connect 5 0 2 0;
#X connect 6 0 2 1;
#X connect 8 0 12 0;
#X connect 9 0 8 0;
#X connect 10 0 11 0;
#X connect 11 0 2 1;
#X connect 12 0 10 0;
#X connect 12 1 11 1;
