#N canvas 444 162 744 357 10;
#X obj 86 134 pyext ParseSymbolicMusic Parse;
#X msg 90 104 doc;
#X msg 83 72 doc+;
#X msg 134 94 reload;
#X obj 263 94 pyext MultiFile ReadFiles;
#X obj 410 46 bng 15 250 50 0 empty empty empty 17 7 0 10 -262144 -1
-1;
#X msg 263 57 reload;
#X obj 292 137 bng 15 250 50 0 empty empty empty 17 7 0 10 -262144
-1 -1;
#X obj 365 259 print Debug_MultiFile;
#X obj 101 236 print Debug_ParseSymbolicMusic;
#X connect 0 1 9 0;
#X connect 1 0 0 0;
#X connect 2 0 0 0;
#X connect 3 0 0 0;
#X connect 4 0 0 1;
#X connect 4 1 8 0;
#X connect 5 0 4 1;
#X connect 6 0 4 0;
#X connect 7 0 0 1;
