#N canvas 892 561 283 249 12;
#X obj 216 56 inlet;
#X obj 19 208 outlet;
#X obj 19 130 pyext SymbolicMusic Parse;
#X msg 36 50 doc;
#X msg 19 18 doc+;
#X msg 47 83 reload;
#X connect 0 0 2 1;
#X connect 2 0 1 0;
#X connect 3 0 2 0;
#X connect 4 0 2 0;
#X connect 5 0 2 0;
