#N canvas 73 144 1052 369 12;
#X obj 115 240 pyext PitchDisplay Convert;
#X obj 156 123 openfiles;
#X obj 156 93 bng 20 250 50 0 empty empty empty 17 7 0 10 -262144 -1
-1;
#X obj 156 180 bng 20 250 50 0 empty empty empty 17 7 0 10 -262144
-1 -1;
#X obj 156 210 list;
#X obj 156 153 t b l;
#X obj 102 66 inlet;
#X obj 156 66 inlet;
#X msg 54 66 doc;
#X msg 54 93 doc+;
#X msg 54 120 reload;
#X msg 470 96 pitchClass;
#X msg 470 126 name;
#X msg 470 156 nameWithOctave;
#X msg 470 186 midi;
#X msg 470 216 frequency;
#X obj 470 246 symbol;
#X symbolatom 470 276 10 0 0 0 - - -, f 10;
#X obj 470 66 inlet;
#X obj 604 66 inlet;
#X floatatom 604 96 5 0 0 0 - - -, f 5;
#X obj 604 303 s pdf_events;
#X obj 197 210 r pdf_pname;
#X obj 470 303 s pdf_pname;
#X obj 238 180 r pdf_events;
#X obj 878 66 inlet;
#X msg 878 96 end;
#X msg 878 126 beginning;
#X obj 878 156 symbol;
#X symbolatom 878 186 10 0 0 0 - - -, f 10;
#X obj 878 303 s pdf_direction;
#X obj 320 120 r pdf_direction;
#X floatatom 759 168 5 0 0 0 - - -, f 5;
#X floatatom 798 228 5 0 0 0 - - -, f 5;
#X obj 721 256 pyx. pak 2;
#X obj 798 197 + 1;
#X obj 721 66 inlet;
#X floatatom 819 169 5 0 0 0 - - -, f 5;
#X obj 721 303 s pdf_slices;
#X obj 279 150 r pdf_slices;
#X obj 115 270 outlet;
#X connect 0 0 40 0;
#X connect 1 0 5 0;
#X connect 2 0 1 0;
#X connect 3 0 4 0;
#X connect 4 0 0 1;
#X connect 5 0 3 0;
#X connect 5 1 4 1;
#X connect 6 0 3 0;
#X connect 7 0 5 0;
#X connect 8 0 0 0;
#X connect 9 0 0 0;
#X connect 10 0 0 0;
#X connect 11 0 16 0;
#X connect 12 0 16 0;
#X connect 13 0 16 0;
#X connect 14 0 16 0;
#X connect 15 0 16 0;
#X connect 16 0 17 0;
#X connect 17 0 23 0;
#X connect 18 0 16 0;
#X connect 19 0 20 0;
#X connect 20 0 21 0;
#X connect 20 0 37 0;
#X connect 22 0 0 2;
#X connect 24 0 0 3;
#X connect 25 0 28 0;
#X connect 26 0 28 0;
#X connect 27 0 28 0;
#X connect 28 0 29 0;
#X connect 29 0 30 0;
#X connect 31 0 0 5;
#X connect 32 0 34 1;
#X connect 32 0 35 0;
#X connect 33 0 34 2;
#X connect 34 0 38 0;
#X connect 35 0 33 0;
#X connect 36 0 38 0;
#X connect 37 0 35 1;
#X connect 39 0 0 4;
