#N canvas 254 32 1134 829 12;
#X text 728 418 Soprano;
#X floatatom 720 442 5 0 0 0 - - -, f 5;
#X floatatom 514 442 5 0 0 0 - - -, f 5;
#X text 523 418 Alto;
#X floatatom 308 442 5 0 0 0 - - -, f 5;
#X floatatom 142 442 5 0 0 0 - - -, f 5;
#X text 316 417 Tenor;
#X text 149 417 Bass;
#X obj 142 392 expr random(40 \, 60);
#X obj 49 394 f;
#X obj 49 424 + 1;
#X floatatom 49 454 5 0 0 0 - - -, f 5;
#X text 85 393 Index;
#X obj 59 481 select 20;
#X obj 49 238 tgl 15 0 empty empty empty 17 7 0 10 -262144 -1 -1 0
1;
#X obj 49 213 bng 15 250 50 0 empty empty empty 17 7 0 10 -262144 -1
-1;
#X obj 49 754 outlet;
#X obj 720 754 outlet;
#X obj 514 754 outlet;
#X obj 308 754 outlet;
#X obj 142 754 outlet;
#X obj 49 43 inlet;
#X obj 720 704 spigot;
#X obj 514 704 spigot;
#X obj 308 704 spigot;
#X obj 142 704 spigot;
#X obj 49 704 spigot;
#X msg 94 571 0;
#X msg 140 233 1;
#X obj 87 424 - 1;
#X obj 59 541 s stop;
#X obj 103 43 r stop;
#X msg 760 233 0;
#X obj 59 511 t b b;
#X floatatom 94 654 5 0 0 0 - - -, f 5;
#X obj 49 183 t b b b;
#X obj 49 158 bng 15 250 50 0 empty empty empty 17 7 0 10 -262144 -1
-1;
#X obj 187 481 loadbang;
#X obj 187 511 float \$1;
#X floatatom 187 541 5 0 0 0 - - -, f 5;
#X obj 49 264 metro;
#X obj 308 392 expr random(($f1+1) \, 64);
#X obj 514 392 expr random(($f1+1) \, 73);
#X obj 720 392 expr random(($f1+1) \, 81);
#X obj 49 295 t b b;
#X text 307 372 (Avoiding Voice Crossing);
#X connect 1 0 22 0;
#X connect 2 0 23 0;
#X connect 2 0 43 0;
#X connect 4 0 24 0;
#X connect 4 0 42 0;
#X connect 5 0 25 0;
#X connect 5 0 41 0;
#X connect 8 0 5 0;
#X connect 9 0 10 0;
#X connect 10 0 11 0;
#X connect 11 0 9 1;
#X connect 11 0 26 0;
#X connect 11 0 13 0;
#X connect 13 0 33 0;
#X connect 14 0 40 0;
#X connect 15 0 14 0;
#X connect 21 0 36 0;
#X connect 22 0 17 0;
#X connect 23 0 18 0;
#X connect 24 0 19 0;
#X connect 25 0 20 0;
#X connect 26 0 16 0;
#X connect 27 0 22 1;
#X connect 27 0 23 1;
#X connect 27 0 24 1;
#X connect 27 0 25 1;
#X connect 27 0 34 0;
#X connect 28 0 23 1;
#X connect 28 0 24 1;
#X connect 28 0 25 1;
#X connect 28 0 22 1;
#X connect 28 0 34 0;
#X connect 29 0 11 0;
#X connect 31 0 15 0;
#X connect 32 0 5 0;
#X connect 32 0 4 0;
#X connect 32 0 2 0;
#X connect 32 0 1 0;
#X connect 32 0 29 0;
#X connect 32 0 9 1;
#X connect 33 0 30 0;
#X connect 33 1 27 0;
#X connect 34 0 26 1;
#X connect 35 0 15 0;
#X connect 35 1 28 0;
#X connect 35 2 32 0;
#X connect 36 0 35 0;
#X connect 37 0 38 0;
#X connect 38 0 39 0;
#X connect 39 0 13 1;
#X connect 40 0 44 0;
#X connect 41 0 4 0;
#X connect 42 0 2 0;
#X connect 43 0 1 0;
#X connect 44 0 9 0;
#X connect 44 1 8 0;
