#N canvas 178 514 913 563 12;
#X obj 74 223 pyext SeriesDisplay Select;
#X msg 54 96 doc;
#X msg 54 123 doc+;
#X msg 54 150 reload;
#X obj 56 55 inlet;
#X text 144 55 Load multiple files.;
#X obj 115 85 openfiles;
#X obj 115 55 bng 20 250 50 0 empty empty empty 17 7 0 10 -262144 -1
-1;
#X obj 115 145 bng 20 250 50 0 empty empty empty 17 7 0 10 -262144
-1 -1;
#X obj 115 175 list;
#X obj 115 115 t b l;
#X connect 1 0 0 0;
#X connect 2 0 0 0;
#X connect 3 0 0 0;
#X connect 4 0 10 0;
#X connect 6 0 10 0;
#X connect 7 0 6 0;
#X connect 8 0 9 0;
#X connect 9 0 0 1;
#X connect 10 0 8 0;
#X connect 10 1 9 1;
