#N canvas 210 385 1020 602 10;
#X msg 389 61 doc;
#X msg 382 29 doc+;
#X msg 430 51 reload;
#X obj 579 64 pyext MultiFile ReadFiles;
#X obj 726 16 bng 15 250 50 0 empty empty empty 17 7 0 10 -262144 -1
-1;
#X msg 579 27 reload;
#X obj 529 16 bng 15 250 50 0 empty empty empty 17 7 0 10 -262144 -1
-1;
#X obj 382 91 pyext SymbolicMusic Parse;
#X obj 35 29 entry 335 539 black green;
#X msg 379 523 clear;
#X msg 379 496 bgcolour black;
#X msg 379 469 fgcolour green;
#X msg 379 415 fontsize \$1;
#X msg 379 550 option relief flat;
#X floatatom 379 364 5 0 0 0 - - -, f 5;
#X obj 379 388 int;
#X msg 379 442 fontname Arial;
#X msg 382 141 set \$1;
#X connect 0 0 7 0;
#X connect 1 0 7 0;
#X connect 2 0 7 0;
#X connect 3 0 7 1;
#X connect 4 0 3 1;
#X connect 5 0 3 0;
#X connect 6 0 7 1;
#X connect 7 0 17 0;
#X connect 9 0 8 0;
#X connect 10 0 8 0;
#X connect 11 0 8 0;
#X connect 12 0 8 0;
#X connect 13 0 8 0;
#X connect 14 0 15 0;
#X connect 15 0 12 0;
#X connect 16 0 8 0;
#X connect 17 0 8 0;
