#N canvas 115 168 823 326 12;
#X obj 153 208 print indexed;
#X msg 270 72 10;
#X msg 226 72 5;
#X obj 316 104 f;
#X floatatom 346 72 5 0 0 0 - - -, f 5;
#X obj 316 72 bng 20 250 50 0 empty empty empty 17 7 0 10 -262144 -1
-1;
#X obj 153 72 bng 20 250 50 0 empty empty empty 17 7 0 10 -262144 -1
-1;
#X msg 398 72 beginning;
#X msg 488 72 end;
#X obj 153 138 vis-index-score-new 5 beginning;
#X connect 1 0 9 2;
#X connect 2 0 9 2;
#X connect 3 0 9 2;
#X connect 4 0 3 1;
#X connect 5 0 3 0;
#X connect 6 0 9 0;
#X connect 7 0 9 3;
#X connect 8 0 9 3;
#X connect 9 0 0 0;
