#N canvas 104 215 457 382 12;
#X obj 86 258 pyext VerticalIntervalIndexer Get;
#X obj 173 220 list;
#X obj 173 160 t b l;
#X obj 173 190 bng 20 250 50 0 empty empty empty 17 7 0 10 -262144
-1 -1;
#X msg 41 128 reload;
#X msg 41 188 doc;
#X msg 41 158 doc+;
#X obj 273 70 openfiles;
#X obj 273 40 bng 20 250 50 0 empty empty Open_File(s) 30 10 0 12 -262144
-1 -66577;
#X obj 173 40 inlet;
#X obj 86 316 outlet;
#X connect 0 0 10 0;
#X connect 1 0 0 1;
#X connect 2 0 3 0;
#X connect 2 1 1 1;
#X connect 3 0 1 0;
#X connect 4 0 0 0;
#X connect 5 0 0 0;
#X connect 6 0 0 0;
#X connect 7 0 2 0;
#X connect 8 0 7 0;
#X connect 9 0 2 0;
