#N canvas 162 284 708 367 10;
#X obj 36 258 pyext VerticalIntervalIndexer Get;
#X obj 68 150 list;
#X obj 68 90 t b l;
#X obj 68 120 bng 20 250 50 0 empty empty empty 17 7 0 10 -262144 -1
-1;
#X msg 36 177 reload;
#X msg 36 231 doc;
#X msg 36 204 doc+;
#X obj 68 63 openfiles;
#X obj 68 33 bng 20 250 50 0 empty empty Open_File(s) 30 10 0 12 -262144
-1 -66577;
#X obj 28 33 inlet;
#X obj 36 285 outlet;
#X floatatom 91 234 5 0 0 0 - - -, f 5;
#X msg 91 210 5;
#X msg 133 204 end;
#X msg 133 231 beginning;
#X obj 91 181 inlet;
#X obj 133 181 inlet;
#X floatatom 212 113 5 0 0 0 - - -, f 5;
#X floatatom 241 173 5 0 0 0 - - -, f 5;
#X text 210 90 Start;
#X text 289 173 End, f 4;
#X obj 184 201 pyx. pak 2;
#X obj 241 142 + 1;
#X floatatom 256 114 5 0 0 0 - - -, f 5;
#X text 252 90 Interval:;
#X obj 166 143 inlet;
#X obj 422 180 inlet;
#X obj 381 58 vint-settings;
#X obj 231 285 outlet;
#X connect 0 0 10 0;
#X connect 0 1 28 0;
#X connect 1 0 0 1;
#X connect 2 0 3 0;
#X connect 2 1 1 1;
#X connect 3 0 1 0;
#X connect 4 0 0 0;
#X connect 5 0 0 0;
#X connect 6 0 0 0;
#X connect 7 0 2 0;
#X connect 8 0 7 0;
#X connect 9 0 2 0;
#X connect 11 0 0 2;
#X connect 11 0 23 0;
#X connect 12 0 11 0;
#X connect 13 0 0 3;
#X connect 14 0 0 3;
#X connect 15 0 11 0;
#X connect 16 0 0 3;
#X connect 17 0 21 1;
#X connect 17 0 22 0;
#X connect 18 0 21 2;
#X connect 21 0 0 4;
#X connect 22 0 18 0;
#X connect 23 0 22 1;
#X connect 25 0 0 4;
#X connect 26 0 0 5;
#X connect 27 0 0 5;
