#N canvas 110 87 946 649 12;
#X text 41 73 VIS for Pd in a music analysis tool to analyze contrapuntal
music.;
#X text 40 119 Requirements:;
#X text 40 195 - Python;
#X text 60 255 - music21;
#X text 59 275 - VIS-Framework;
#X text 59 295 - pandas;
#X text 40 215 - Python Libraries:;
#X text 56 235 (all libraries can be installed via Python's pip installer)
;
#X text 40 139 - py/pyext: Thomas Grill's Python extension for Pd.
Check GitHub, f 67;
#X text 135 159 (https://github.com/grrrr/py) on how to build the external.
;
#X obj 43 375 music21-test;
#X text 40 335 ----- VIS for Pd Abstractions (Objects) -----------------------------
, f 69;
#X text 40 39 ----- VIS for Pd Help -----------------------------------------------
, f 69;
#X text 247 376 - Access to scripts testing music21.;
#X text 247 406 - Parse a score with music21 \, and index it with VIS.
;
#X obj 43 405 vis-index-score;
#X obj 43 435 vis-vertical-intervals;
#X obj 43 465 vis-horizontal-intervals;
#X text 247 434 - Finds vertical intervals between voices.;
#X text 247 464 - Finds horizontal intervals within voices.;
