#N canvas 493 343 625 359 12;
#X obj 69 94 inlet;
#X msg 140 94 reload;
#X obj 33 94 bng 25 250 50 0 empty empty empty 17 7 0 10 -262144 -1
-1;
#X obj 33 167 openpanel;
#X obj 140 301 outlet;
#X obj 140 234 py vis-index-score index_score;
#X obj 33 301 outlet;
#X obj 202 301 print;
#X connect 0 0 3 0;
#X connect 1 0 5 0;
#X connect 2 0 3 0;
#X connect 3 0 5 1;
#X connect 3 0 6 0;
#X connect 5 0 4 0;
#X connect 5 0 7 0;
