#N canvas 288 676 334 208 12;
#X obj 28 132 py vis-index-score parse_score;
#X obj 28 162 outlet;
#X obj 265 23 inlet;
#X msg 28 102 reload;
#X obj 28 73 t b;
#X connect 0 0 1 0;
#X connect 2 0 4 0;
#X connect 2 0 0 1;
#X connect 3 0 0 0;
#X connect 4 0 3 0;
