#N canvas 209 37 1168 668 12;
#X msg 243 387 reload;
#X obj 269 117 bng 15 250 50 0 empty empty Bypass 17 7 0 10 -262144
-1 -1;
#X obj 269 142 openpanel;
#X obj 269 227 symbol;
#X obj 269 202 bng 15 250 50 0 empty empty Bypass 17 7 0 10 -262144
-1 -1;
#X msg 369 327 index;
#X obj 369 365 bng 15 250 50 0 empty empty Bypass 17 7 0 10 -262144
-1 -1;
#X msg 520 268 beginning;
#X msg 531 308 end;
#X floatatom 433 263 5 0 0 0 - - -, f 5;
#X obj 496 228 inlet;
#X obj 269 87 inlet;
#X obj 433 199 inlet;
#X obj 433 290 t b f;
#X obj 243 507 pyext VIS-Tools NoteRestIndexing, f 40;
#X obj 433 324 bng 15 250 50 0 empty empty Bypass 17 7 0 10 -262144
-1 -1;
#X obj 269 172 t b s;
#X obj 269 267 t b s;
#X obj 433 353 f \$1;
#X obj 243 597 outlet;
#X obj 489 597 outlet;
#X obj 359 169 inlet;
#X text 321 86 <= File selection prompt to choose a symbolic music
file.;
#X text 411 168 <= View default events in DataFrame of symbolic music
file;
#X text 532 198 <= Change amount of events to show from DataFrame.
;
#X text 553 596 <= Selected file bypass.;
#X text 310 598 <= Print/Data outlet;
#X text 548 228 <= Choose whether to view events from the beginning
or end of the DataFrame., f 77;
#X text 106 386 If Python file has been edited \, it has to be reloaded
, f 12;
#X text 208 386 =>;
#X msg 243 327 doc, f 4;
#X msg 243 357 doc+;
#X text 44 326 Documentation module;
#X text 52 359 Documentation class;
#X text 209 359 =>;
#X text 210 326 =>;
#X text 604 268 <= Bypass for testing this abstraction outside of a
patch. (Look from the beginning of the DataFrame).;
#X text 575 308 <= Bypass for testing this abstraction outside of a
patch. (Look from the end of the DataFrame).;
#X text 604 360 <= Bypass for testing this abstraction outside of a
patch. (Specify beginning and end points from a slice of DataFrame).
, f 68;
#X msg 560 362 4 8;
#X obj 580 467 inlet;
#X floatatom 640 441 5 0 0 0 - - -, f 5;
#X floatatom 701 441 5 0 0 0 - - -, f 5;
#X obj 640 487 pack 0 0;
#X obj 640 412 t b;
#X connect 0 0 14 0;
#X connect 1 0 2 0;
#X connect 2 0 16 0;
#X connect 3 0 17 0;
#X connect 4 0 3 0;
#X connect 5 0 6 0;
#X connect 6 0 14 2;
#X connect 7 0 14 4;
#X connect 8 0 14 4;
#X connect 9 0 13 0;
#X connect 10 0 14 4;
#X connect 11 0 1 0;
#X connect 12 0 9 0;
#X connect 13 0 15 0;
#X connect 13 1 18 1;
#X connect 14 0 19 0;
#X connect 15 0 18 0;
#X connect 16 0 4 0;
#X connect 16 1 3 1;
#X connect 17 0 5 0;
#X connect 17 1 14 1;
#X connect 17 1 20 0;
#X connect 18 0 14 3;
#X connect 21 0 15 0;
#X connect 30 0 14 0;
#X connect 31 0 14 0;
#X connect 39 0 14 5;
#X connect 40 0 14 5;
#X connect 41 0 43 0;
#X connect 42 0 43 1;
#X connect 42 0 44 0;
#X connect 43 0 14 5;
#X connect 44 0 41 0;
