#N canvas 364 92 754 551 12;
#X obj 69 94 inlet;
#X msg 140 167 reload;
#X obj 33 94 bng 25 250 50 0 empty empty empty 17 7 0 10 -262144 -1
-1;
#X obj 33 167 openpanel;
#X obj 140 501 outlet;
#X obj 33 501 outlet;
#X obj 140 454 py vis-index-score-new index_score;
#X obj 409 393 symbol;
#X obj 409 358 bng 25 250 50 0 empty empty empty 17 7 0 10 -262144
-1 -1;
#X obj 409 308 t b s;
#X obj 201 501 print note-rest-indexed-score;
#X floatatom 471 167 5 0 0 0 - - -, f 5;
#X obj 471 94 loadbang;
#X obj 471 134 f \$1;
#X obj 555 94 inlet;
#X obj 140 94 inlet;
#X obj 471 307 t f b;
#X obj 409 424 pack s f s, f 16;
#X obj 612 94 inlet;
#X obj 612 134 symbol \$2;
#X symbolatom 612 166 10 0 0 0 - - -, f 10;
#X obj 612 247 t b s;
#X connect 0 0 3 0;
#X connect 1 0 6 0;
#X connect 2 0 3 0;
#X connect 3 0 5 0;
#X connect 3 0 9 0;
#X connect 6 0 4 0;
#X connect 6 0 10 0;
#X connect 7 0 17 0;
#X connect 8 0 7 0;
#X connect 9 0 8 0;
#X connect 9 1 7 1;
#X connect 11 0 16 0;
#X connect 12 0 13 0;
#X connect 12 0 19 0;
#X connect 13 0 11 0;
#X connect 14 0 13 0;
#X connect 15 0 1 0;
#X connect 16 0 17 1;
#X connect 16 1 8 0;
#X connect 17 0 6 1;
#X connect 18 0 19 0;
#X connect 19 0 20 0;
#X connect 20 0 21 0;
#X connect 21 0 8 0;
#X connect 21 1 17 2;
