#N canvas 673 223 456 366 12;
#X obj 108 304 outlet;
#X obj 375 23 inlet;
#X msg 108 96 reload;
#X obj 108 65 t b;
#X obj 22 23 bng 25 250 50 0 empty empty empty 17 7 0 10 -262144 -1
-1;
#X obj 22 96 openpanel;
#X obj 108 154 py vis-index-score index_score;
#X obj 22 304 outlet;
#X connect 1 0 3 0;
#X connect 1 0 6 1;
#X connect 1 0 5 0;
#X connect 2 0 6 0;
#X connect 3 0 2 0;
#X connect 4 0 5 0;
#X connect 4 0 3 0;
#X connect 5 0 6 1;
#X connect 5 0 7 0;
#X connect 6 0 0 0;
