#N canvas 23 528 490 330 12;
#X msg 33 30 reload;
#X obj 112 59 bng 15 250 50 0 empty empty empty 17 7 0 10 -262144 -1
-1;
#X obj 112 85 openpanel;
#X obj 112 170 symbol;
#X obj 112 145 bng 15 250 50 0 empty empty empty 17 7 0 10 -262144
-1 -1;
#X msg 191 172 index;
#X obj 191 213 bng 15 250 50 0 empty empty empty 17 7 0 10 -262144
-1 -1;
#X msg 360 57 beginning;
#X msg 370 87 end;
#X floatatom 270 62 5 0 0 0 - - -, f 5;
#X obj 350 27 inlet;
#X obj 112 29 inlet;
#X obj 270 28 inlet;
#X obj 270 135 t b f;
#X obj 33 242 pyext VIS-Tools NoteRestIndexing, f 40;
#X obj 270 165 bng 15 250 50 0 empty empty empty 17 7 0 10 -262144
-1 -1;
#X obj 112 115 t b s;
#X obj 112 210 t b s;
#X obj 270 198 f \$1;
#X obj 33 282 outlet;
#X obj 149 282 outlet;
#X obj 196 28 inlet;
#X connect 0 0 14 0;
#X connect 1 0 2 0;
#X connect 2 0 16 0;
#X connect 3 0 17 0;
#X connect 4 0 3 0;
#X connect 5 0 6 0;
#X connect 6 0 14 2;
#X connect 7 0 14 4;
#X connect 8 0 14 4;
#X connect 9 0 13 0;
#X connect 10 0 14 4;
#X connect 11 0 1 0;
#X connect 12 0 9 0;
#X connect 13 0 15 0;
#X connect 13 1 18 1;
#X connect 14 0 19 0;
#X connect 15 0 18 0;
#X connect 16 0 4 0;
#X connect 16 1 3 1;
#X connect 17 0 5 0;
#X connect 17 1 14 1;
#X connect 17 1 20 0;
#X connect 18 0 14 3;
#X connect 21 0 15 0;
