#N canvas 39 532 828 366 12;
#X obj 69 30 inlet;
#X msg 140 30 reload;
#X obj 33 30 bng 25 250 50 0 empty empty empty 17 7 0 10 -262144 -1
-1;
#X obj 33 73 openpanel;
#X obj 140 316 outlet;
#X obj 33 317 outlet;
#X obj 377 208 symbol;
#X obj 377 173 bng 25 250 50 0 empty empty empty 17 7 0 10 -262144
-1 -1;
#X obj 201 316 print note-rest-indexed-score;
#X floatatom 439 126 5 0 0 0 - - -, f 5;
#X obj 439 93 f \$1;
#X obj 439 30 inlet;
#X obj 439 153 t f b;
#X obj 377 239 pack s f s, f 16;
#X obj 520 30 inlet;
#X obj 520 73 symbol \$2;
#X symbolatom 520 125 10 0 0 0 - - -, f 10;
#X obj 520 153 t b s;
#X obj 140 269 py vis-index-score index_score;
#X obj 377 93 t b s;
#X floatatom 468 66 5 0 0 0 - - -, f 5;
#X obj 447 67 bng 15 250 50 0 empty empty empty 17 7 0 10 -262144 -1
-1;
#X msg 641 75 symbol beginning;
#X msg 641 105 symbol end;
#X connect 0 0 3 0;
#X connect 1 0 18 0;
#X connect 2 0 3 0;
#X connect 3 0 5 0;
#X connect 3 0 19 0;
#X connect 6 0 13 0;
#X connect 7 0 6 0;
#X connect 9 0 12 0;
#X connect 10 0 9 0;
#X connect 11 0 10 0;
#X connect 12 0 13 1;
#X connect 12 1 7 0;
#X connect 13 0 18 1;
#X connect 14 0 15 0;
#X connect 15 0 16 0;
#X connect 16 0 17 0;
#X connect 17 0 7 0;
#X connect 17 1 13 2;
#X connect 18 0 4 0;
#X connect 18 0 8 0;
#X connect 19 0 7 0;
#X connect 19 1 6 1;
#X connect 20 0 10 1;
#X connect 21 0 10 0;
#X connect 22 0 16 0;
#X connect 23 0 16 0;
